M48
;DRILL file {KiCad (5.0.1)-4} date 6/14/2019 11:28:21 AM
;FORMAT={2:4/ absolute / inch / suppress trailing zeros}
FMAT,2
INCH,LZ
T1C0.0157
T2C0.0354
T3C0.0374
T4C0.0394
T5C0.0433
%
G90
G05
M72
T1
X0403Y-0258
X0405Y-0291
X0437Y-0261
X0448Y-0279
X0515Y-03
X054Y-0318
X0553Y-02915
X0589Y-0279
X0643Y-0306
X0645Y-0255
X0652Y-0281
X0704Y-0279
T2
X0671Y-0251
X0701Y-0251
X0414Y-0249
X0444Y-0249
X0556Y-0251
X0586Y-0251
T3
X054094Y-0219
X055079Y-0219
X056063Y-0219
X057047Y-0219
X058031Y-0219
X059016Y-0219
X06Y-0219
T4
X0777Y-0296
X0777Y-0306
X0777Y-0316
X0777Y-0326
X0777Y-0336
X0777Y-0346
X0777Y-0356
X064816Y-037
X0658Y-037
X038716Y-0369
X0397Y-0369
X052616Y-037
X0536Y-037
X050473Y-0245
X050473Y-0255
T5
X0602Y-0289
X0612Y-0289
X0622Y-0289
X04625Y-033
X04725Y-033
X04825Y-033
X0711Y-033
X0721Y-033
X0731Y-033
X071Y-0289
X072Y-0289
X073Y-0289
X0602Y-033
X0612Y-033
X0622Y-033
X0462Y-0287
X0472Y-0287
X0482Y-0287
T0
M30
