G04 #@! TF.GenerationSoftware,KiCad,Pcbnew,(5.0.1)-4*
G04 #@! TF.CreationDate,2019-06-14T11:28:15-07:00*
G04 #@! TF.ProjectId,ESC_rev1,4553435F726576312E6B696361645F70,rev?*
G04 #@! TF.SameCoordinates,Original*
G04 #@! TF.FileFunction,Copper,L2,Bot,Signal*
G04 #@! TF.FilePolarity,Positive*
%FSLAX46Y46*%
G04 Gerber Fmt 4.6, Leading zero omitted, Abs format (unit mm)*
G04 Created by KiCad (PCBNEW (5.0.1)-4) date 6/14/2019 11:28:15 AM*
%MOMM*%
%LPD*%
G01*
G04 APERTURE LIST*
G04 #@! TA.AperFunction,NonConductor*
%ADD10C,0.300000*%
G04 #@! TD*
G04 #@! TA.AperFunction,ComponentPad*
%ADD11R,1.800000X1.800000*%
G04 #@! TD*
G04 #@! TA.AperFunction,ComponentPad*
%ADD12O,1.800000X1.800000*%
G04 #@! TD*
G04 #@! TA.AperFunction,ComponentPad*
%ADD13R,1.700000X1.700000*%
G04 #@! TD*
G04 #@! TA.AperFunction,ComponentPad*
%ADD14O,1.700000X1.700000*%
G04 #@! TD*
G04 #@! TA.AperFunction,ComponentPad*
%ADD15R,1.905000X2.000000*%
G04 #@! TD*
G04 #@! TA.AperFunction,ComponentPad*
%ADD16O,1.905000X2.000000*%
G04 #@! TD*
G04 #@! TA.AperFunction,Conductor*
%ADD17C,0.100000*%
G04 #@! TD*
G04 #@! TA.AperFunction,ComponentPad*
%ADD18C,1.700000*%
G04 #@! TD*
G04 #@! TA.AperFunction,ComponentPad*
%ADD19O,1.700000X2.000000*%
G04 #@! TD*
G04 #@! TA.AperFunction,ComponentPad*
%ADD20O,1.700000X1.950000*%
G04 #@! TD*
G04 #@! TA.AperFunction,ViaPad*
%ADD21C,0.800000*%
G04 #@! TD*
G04 #@! TA.AperFunction,Conductor*
%ADD22C,0.508000*%
G04 #@! TD*
G04 #@! TA.AperFunction,Conductor*
%ADD23C,0.254000*%
G04 #@! TD*
G04 APERTURE END LIST*
D10*
X193820800Y-54398171D02*
X193320800Y-55898171D01*
X192820800Y-54398171D01*
X191463657Y-55755314D02*
X191535085Y-55826742D01*
X191749371Y-55898171D01*
X191892228Y-55898171D01*
X192106514Y-55826742D01*
X192249371Y-55683885D01*
X192320800Y-55541028D01*
X192392228Y-55255314D01*
X192392228Y-55041028D01*
X192320800Y-54755314D01*
X192249371Y-54612457D01*
X192106514Y-54469600D01*
X191892228Y-54398171D01*
X191749371Y-54398171D01*
X191535085Y-54469600D01*
X191463657Y-54541028D01*
X189963657Y-55755314D02*
X190035085Y-55826742D01*
X190249371Y-55898171D01*
X190392228Y-55898171D01*
X190606514Y-55826742D01*
X190749371Y-55683885D01*
X190820800Y-55541028D01*
X190892228Y-55255314D01*
X190892228Y-55041028D01*
X190820800Y-54755314D01*
X190749371Y-54612457D01*
X190606514Y-54469600D01*
X190392228Y-54398171D01*
X190249371Y-54398171D01*
X190035085Y-54469600D01*
X189963657Y-54541028D01*
D11*
G04 #@! TO.P,D1,1*
G04 #@! TO.N,Net-(C2-Pad2)*
X112776000Y-63246000D03*
D12*
G04 #@! TO.P,D1,2*
G04 #@! TO.N,Net-(D1-Pad2)*
X105156000Y-63246000D03*
G04 #@! TD*
D11*
G04 #@! TO.P,D2,1*
G04 #@! TO.N,Net-(C6-Pad2)*
X148844000Y-63754000D03*
D12*
G04 #@! TO.P,D2,2*
G04 #@! TO.N,Net-(D2-Pad2)*
X141224000Y-63754000D03*
G04 #@! TD*
G04 #@! TO.P,D3,2*
G04 #@! TO.N,Net-(D3-Pad2)*
X170434000Y-63754000D03*
D11*
G04 #@! TO.P,D3,1*
G04 #@! TO.N,Net-(C10-Pad2)*
X178054000Y-63754000D03*
G04 #@! TD*
D13*
G04 #@! TO.P,J1,1*
G04 #@! TO.N,GND*
X128200759Y-64769789D03*
D14*
G04 #@! TO.P,J1,2*
G04 #@! TO.N,Vcc*
X128200759Y-62229789D03*
G04 #@! TD*
D15*
G04 #@! TO.P,Q1,1*
G04 #@! TO.N,Net-(Q1-Pad1)*
X117348000Y-72898000D03*
D16*
G04 #@! TO.P,Q1,2*
G04 #@! TO.N,Vcc*
X119888000Y-72898000D03*
G04 #@! TO.P,Q1,3*
G04 #@! TO.N,Net-(C2-Pad1)*
X122428000Y-72898000D03*
G04 #@! TD*
D15*
G04 #@! TO.P,Q2,1*
G04 #@! TO.N,Net-(Q2-Pad1)*
X117475000Y-83820000D03*
D16*
G04 #@! TO.P,Q2,2*
G04 #@! TO.N,Net-(C2-Pad1)*
X120015000Y-83820000D03*
G04 #@! TO.P,Q2,3*
G04 #@! TO.N,GND*
X122555000Y-83820000D03*
G04 #@! TD*
G04 #@! TO.P,Q3,3*
G04 #@! TO.N,Net-(C6-Pad1)*
X157988000Y-73406000D03*
G04 #@! TO.P,Q3,2*
G04 #@! TO.N,Vcc*
X155448000Y-73406000D03*
D15*
G04 #@! TO.P,Q3,1*
G04 #@! TO.N,Net-(Q3-Pad1)*
X152908000Y-73406000D03*
G04 #@! TD*
G04 #@! TO.P,Q4,1*
G04 #@! TO.N,Net-(Q4-Pad1)*
X152908000Y-83820000D03*
D16*
G04 #@! TO.P,Q4,2*
G04 #@! TO.N,Net-(C6-Pad1)*
X155448000Y-83820000D03*
G04 #@! TO.P,Q4,3*
G04 #@! TO.N,GND*
X157988000Y-83820000D03*
G04 #@! TD*
G04 #@! TO.P,Q5,3*
G04 #@! TO.N,Net-(C10-Pad1)*
X185420000Y-73406000D03*
G04 #@! TO.P,Q5,2*
G04 #@! TO.N,Vcc*
X182880000Y-73406000D03*
D15*
G04 #@! TO.P,Q5,1*
G04 #@! TO.N,Net-(Q5-Pad1)*
X180340000Y-73406000D03*
G04 #@! TD*
D16*
G04 #@! TO.P,Q6,3*
G04 #@! TO.N,GND*
X185674000Y-83820000D03*
G04 #@! TO.P,Q6,2*
G04 #@! TO.N,Net-(C10-Pad1)*
X183134000Y-83820000D03*
D15*
G04 #@! TO.P,Q6,1*
G04 #@! TO.N,Net-(Q6-Pad1)*
X180594000Y-83820000D03*
G04 #@! TD*
D17*
G04 #@! TO.N,VSS1*
G04 #@! TO.C,J4*
G36*
X101462504Y-92727204D02*
X101486773Y-92730804D01*
X101510571Y-92736765D01*
X101533671Y-92745030D01*
X101555849Y-92755520D01*
X101576893Y-92768133D01*
X101596598Y-92782747D01*
X101614777Y-92799223D01*
X101631253Y-92817402D01*
X101645867Y-92837107D01*
X101658480Y-92858151D01*
X101668970Y-92880329D01*
X101677235Y-92903429D01*
X101683196Y-92927227D01*
X101686796Y-92951496D01*
X101688000Y-92976000D01*
X101688000Y-94476000D01*
X101686796Y-94500504D01*
X101683196Y-94524773D01*
X101677235Y-94548571D01*
X101668970Y-94571671D01*
X101658480Y-94593849D01*
X101645867Y-94614893D01*
X101631253Y-94634598D01*
X101614777Y-94652777D01*
X101596598Y-94669253D01*
X101576893Y-94683867D01*
X101555849Y-94696480D01*
X101533671Y-94706970D01*
X101510571Y-94715235D01*
X101486773Y-94721196D01*
X101462504Y-94724796D01*
X101438000Y-94726000D01*
X100238000Y-94726000D01*
X100213496Y-94724796D01*
X100189227Y-94721196D01*
X100165429Y-94715235D01*
X100142329Y-94706970D01*
X100120151Y-94696480D01*
X100099107Y-94683867D01*
X100079402Y-94669253D01*
X100061223Y-94652777D01*
X100044747Y-94634598D01*
X100030133Y-94614893D01*
X100017520Y-94593849D01*
X100007030Y-94571671D01*
X99998765Y-94548571D01*
X99992804Y-94524773D01*
X99989204Y-94500504D01*
X99988000Y-94476000D01*
X99988000Y-92976000D01*
X99989204Y-92951496D01*
X99992804Y-92927227D01*
X99998765Y-92903429D01*
X100007030Y-92880329D01*
X100017520Y-92858151D01*
X100030133Y-92837107D01*
X100044747Y-92817402D01*
X100061223Y-92799223D01*
X100079402Y-92782747D01*
X100099107Y-92768133D01*
X100120151Y-92755520D01*
X100142329Y-92745030D01*
X100165429Y-92736765D01*
X100189227Y-92730804D01*
X100213496Y-92727204D01*
X100238000Y-92726000D01*
X101438000Y-92726000D01*
X101462504Y-92727204D01*
X101462504Y-92727204D01*
G37*
D18*
G04 #@! TD*
G04 #@! TO.P,J4,1*
G04 #@! TO.N,VSS1*
X100838000Y-93726000D03*
D19*
G04 #@! TO.P,J4,2*
G04 #@! TO.N,VDD1*
X98338000Y-93726000D03*
G04 #@! TD*
G04 #@! TO.P,J5,2*
G04 #@! TO.N,VDD2*
X133644000Y-93980000D03*
D17*
G04 #@! TD*
G04 #@! TO.N,VSS1*
G04 #@! TO.C,J5*
G36*
X136768504Y-92981204D02*
X136792773Y-92984804D01*
X136816571Y-92990765D01*
X136839671Y-92999030D01*
X136861849Y-93009520D01*
X136882893Y-93022133D01*
X136902598Y-93036747D01*
X136920777Y-93053223D01*
X136937253Y-93071402D01*
X136951867Y-93091107D01*
X136964480Y-93112151D01*
X136974970Y-93134329D01*
X136983235Y-93157429D01*
X136989196Y-93181227D01*
X136992796Y-93205496D01*
X136994000Y-93230000D01*
X136994000Y-94730000D01*
X136992796Y-94754504D01*
X136989196Y-94778773D01*
X136983235Y-94802571D01*
X136974970Y-94825671D01*
X136964480Y-94847849D01*
X136951867Y-94868893D01*
X136937253Y-94888598D01*
X136920777Y-94906777D01*
X136902598Y-94923253D01*
X136882893Y-94937867D01*
X136861849Y-94950480D01*
X136839671Y-94960970D01*
X136816571Y-94969235D01*
X136792773Y-94975196D01*
X136768504Y-94978796D01*
X136744000Y-94980000D01*
X135544000Y-94980000D01*
X135519496Y-94978796D01*
X135495227Y-94975196D01*
X135471429Y-94969235D01*
X135448329Y-94960970D01*
X135426151Y-94950480D01*
X135405107Y-94937867D01*
X135385402Y-94923253D01*
X135367223Y-94906777D01*
X135350747Y-94888598D01*
X135336133Y-94868893D01*
X135323520Y-94847849D01*
X135313030Y-94825671D01*
X135304765Y-94802571D01*
X135298804Y-94778773D01*
X135295204Y-94754504D01*
X135294000Y-94730000D01*
X135294000Y-93230000D01*
X135295204Y-93205496D01*
X135298804Y-93181227D01*
X135304765Y-93157429D01*
X135313030Y-93134329D01*
X135323520Y-93112151D01*
X135336133Y-93091107D01*
X135350747Y-93071402D01*
X135367223Y-93053223D01*
X135385402Y-93036747D01*
X135405107Y-93022133D01*
X135426151Y-93009520D01*
X135448329Y-92999030D01*
X135471429Y-92990765D01*
X135495227Y-92984804D01*
X135519496Y-92981204D01*
X135544000Y-92980000D01*
X136744000Y-92980000D01*
X136768504Y-92981204D01*
X136768504Y-92981204D01*
G37*
D18*
G04 #@! TO.P,J5,1*
G04 #@! TO.N,VSS1*
X136144000Y-93980000D03*
G04 #@! TD*
D17*
G04 #@! TO.N,VSS1*
G04 #@! TO.C,J6*
G36*
X167756504Y-92981204D02*
X167780773Y-92984804D01*
X167804571Y-92990765D01*
X167827671Y-92999030D01*
X167849849Y-93009520D01*
X167870893Y-93022133D01*
X167890598Y-93036747D01*
X167908777Y-93053223D01*
X167925253Y-93071402D01*
X167939867Y-93091107D01*
X167952480Y-93112151D01*
X167962970Y-93134329D01*
X167971235Y-93157429D01*
X167977196Y-93181227D01*
X167980796Y-93205496D01*
X167982000Y-93230000D01*
X167982000Y-94730000D01*
X167980796Y-94754504D01*
X167977196Y-94778773D01*
X167971235Y-94802571D01*
X167962970Y-94825671D01*
X167952480Y-94847849D01*
X167939867Y-94868893D01*
X167925253Y-94888598D01*
X167908777Y-94906777D01*
X167890598Y-94923253D01*
X167870893Y-94937867D01*
X167849849Y-94950480D01*
X167827671Y-94960970D01*
X167804571Y-94969235D01*
X167780773Y-94975196D01*
X167756504Y-94978796D01*
X167732000Y-94980000D01*
X166532000Y-94980000D01*
X166507496Y-94978796D01*
X166483227Y-94975196D01*
X166459429Y-94969235D01*
X166436329Y-94960970D01*
X166414151Y-94950480D01*
X166393107Y-94937867D01*
X166373402Y-94923253D01*
X166355223Y-94906777D01*
X166338747Y-94888598D01*
X166324133Y-94868893D01*
X166311520Y-94847849D01*
X166301030Y-94825671D01*
X166292765Y-94802571D01*
X166286804Y-94778773D01*
X166283204Y-94754504D01*
X166282000Y-94730000D01*
X166282000Y-93230000D01*
X166283204Y-93205496D01*
X166286804Y-93181227D01*
X166292765Y-93157429D01*
X166301030Y-93134329D01*
X166311520Y-93112151D01*
X166324133Y-93091107D01*
X166338747Y-93071402D01*
X166355223Y-93053223D01*
X166373402Y-93036747D01*
X166393107Y-93022133D01*
X166414151Y-93009520D01*
X166436329Y-92999030D01*
X166459429Y-92990765D01*
X166483227Y-92984804D01*
X166507496Y-92981204D01*
X166532000Y-92980000D01*
X167732000Y-92980000D01*
X167756504Y-92981204D01*
X167756504Y-92981204D01*
G37*
D18*
G04 #@! TD*
G04 #@! TO.P,J6,1*
G04 #@! TO.N,VSS1*
X167132000Y-93980000D03*
D19*
G04 #@! TO.P,J6,2*
G04 #@! TO.N,VDD3*
X164632000Y-93980000D03*
G04 #@! TD*
D13*
G04 #@! TO.P,J3,1*
G04 #@! TO.N,Net-(C2-Pad1)*
X197358000Y-75184000D03*
D14*
G04 #@! TO.P,J3,2*
G04 #@! TO.N,N/C*
X197358000Y-77724000D03*
G04 #@! TO.P,J3,3*
G04 #@! TO.N,Net-(C6-Pad1)*
X197358000Y-80264000D03*
G04 #@! TO.P,J3,4*
G04 #@! TO.N,N/C*
X197358000Y-82804000D03*
G04 #@! TO.P,J3,5*
G04 #@! TO.N,Net-(C10-Pad1)*
X197358000Y-85344000D03*
G04 #@! TO.P,J3,6*
G04 #@! TO.N,N/C*
X197358000Y-87884000D03*
G04 #@! TO.P,J3,7*
X197358000Y-90424000D03*
G04 #@! TD*
D17*
G04 #@! TO.N,VSS1*
G04 #@! TO.C,J2*
G36*
X153024504Y-54652204D02*
X153048773Y-54655804D01*
X153072571Y-54661765D01*
X153095671Y-54670030D01*
X153117849Y-54680520D01*
X153138893Y-54693133D01*
X153158598Y-54707747D01*
X153176777Y-54724223D01*
X153193253Y-54742402D01*
X153207867Y-54762107D01*
X153220480Y-54783151D01*
X153230970Y-54805329D01*
X153239235Y-54828429D01*
X153245196Y-54852227D01*
X153248796Y-54876496D01*
X153250000Y-54901000D01*
X153250000Y-56351000D01*
X153248796Y-56375504D01*
X153245196Y-56399773D01*
X153239235Y-56423571D01*
X153230970Y-56446671D01*
X153220480Y-56468849D01*
X153207867Y-56489893D01*
X153193253Y-56509598D01*
X153176777Y-56527777D01*
X153158598Y-56544253D01*
X153138893Y-56558867D01*
X153117849Y-56571480D01*
X153095671Y-56581970D01*
X153072571Y-56590235D01*
X153048773Y-56596196D01*
X153024504Y-56599796D01*
X153000000Y-56601000D01*
X151800000Y-56601000D01*
X151775496Y-56599796D01*
X151751227Y-56596196D01*
X151727429Y-56590235D01*
X151704329Y-56581970D01*
X151682151Y-56571480D01*
X151661107Y-56558867D01*
X151641402Y-56544253D01*
X151623223Y-56527777D01*
X151606747Y-56509598D01*
X151592133Y-56489893D01*
X151579520Y-56468849D01*
X151569030Y-56446671D01*
X151560765Y-56423571D01*
X151554804Y-56399773D01*
X151551204Y-56375504D01*
X151550000Y-56351000D01*
X151550000Y-54901000D01*
X151551204Y-54876496D01*
X151554804Y-54852227D01*
X151560765Y-54828429D01*
X151569030Y-54805329D01*
X151579520Y-54783151D01*
X151592133Y-54762107D01*
X151606747Y-54742402D01*
X151623223Y-54724223D01*
X151641402Y-54707747D01*
X151661107Y-54693133D01*
X151682151Y-54680520D01*
X151704329Y-54670030D01*
X151727429Y-54661765D01*
X151751227Y-54655804D01*
X151775496Y-54652204D01*
X151800000Y-54651000D01*
X153000000Y-54651000D01*
X153024504Y-54652204D01*
X153024504Y-54652204D01*
G37*
D18*
G04 #@! TD*
G04 #@! TO.P,J2,1*
G04 #@! TO.N,VSS1*
X152400000Y-55626000D03*
D20*
G04 #@! TO.P,J2,2*
G04 #@! TO.N,CH*
X149900000Y-55626000D03*
G04 #@! TO.P,J2,3*
G04 #@! TO.N,BH*
X147400000Y-55626000D03*
G04 #@! TO.P,J2,4*
G04 #@! TO.N,AH*
X144900000Y-55626000D03*
G04 #@! TO.P,J2,5*
G04 #@! TO.N,CL*
X142400000Y-55626000D03*
G04 #@! TO.P,J2,6*
G04 #@! TO.N,BL*
X139900000Y-55626000D03*
G04 #@! TO.P,J2,7*
G04 #@! TO.N,AL*
X137400000Y-55626000D03*
G04 #@! TD*
D21*
G04 #@! TO.N,Net-(C2-Pad1)*
X130810000Y-76200000D03*
X113792000Y-70866000D03*
G04 #@! TO.N,Net-(C6-Pad1)*
X149606000Y-70866000D03*
X163322000Y-77724000D03*
G04 #@! TO.N,Net-(C10-Pad1)*
X178816000Y-70866000D03*
G04 #@! TO.N,AH*
X110998000Y-66294000D03*
G04 #@! TO.N,CL*
X163830000Y-64770000D03*
G04 #@! TO.N,AL*
X102362000Y-65532000D03*
G04 #@! TO.N,VSS1*
X165608000Y-71374000D03*
X102870000Y-73914000D03*
X137160000Y-80772000D03*
X140462000Y-74041000D03*
G04 #@! TD*
D22*
G04 #@! TO.N,Net-(C2-Pad1)*
X195242000Y-76200000D02*
X130810000Y-76200000D01*
X197358000Y-75184000D02*
X196258000Y-75184000D01*
X196258000Y-75184000D02*
X195242000Y-76200000D01*
X113792000Y-70866000D02*
X121158000Y-70866000D01*
X122428000Y-72850500D02*
X122428000Y-72898000D01*
X121158000Y-71580500D02*
X122428000Y-72850500D01*
X121158000Y-70866000D02*
X121158000Y-71580500D01*
G04 #@! TO.N,Net-(C6-Pad1)*
X157988000Y-73358500D02*
X157988000Y-73406000D01*
X155749500Y-71120000D02*
X157988000Y-73358500D01*
X155749500Y-71120000D02*
X149860000Y-71120000D01*
X149860000Y-71120000D02*
X149606000Y-70866000D01*
X196508001Y-79414001D02*
X197358000Y-80264000D01*
X196000001Y-79414001D02*
X196508001Y-79414001D01*
X163322000Y-77724000D02*
X192938400Y-77774800D01*
X192938400Y-77774800D02*
X196000001Y-79414001D01*
G04 #@! TO.N,Net-(C10-Pad1)*
X178816000Y-70866000D02*
X183642000Y-70866000D01*
X185420000Y-73358500D02*
X185420000Y-73406000D01*
X183642000Y-71580500D02*
X185420000Y-73358500D01*
X183642000Y-70866000D02*
X183642000Y-71580500D01*
G04 #@! TO.N,AH*
X144900000Y-55751000D02*
X144900000Y-55626000D01*
X110998000Y-66294000D02*
X111397999Y-65894001D01*
X111397999Y-65894001D02*
X113175999Y-65894001D01*
X113175999Y-65894001D02*
X116586000Y-62484000D01*
X116586000Y-62484000D02*
X116586000Y-57658000D01*
X116586000Y-57658000D02*
X142993000Y-57658000D01*
X142993000Y-57658000D02*
X144900000Y-55751000D01*
G04 #@! TO.N,CL*
X163576000Y-64770000D02*
X163830000Y-64770000D01*
X154940000Y-53594000D02*
X163576000Y-64770000D01*
X143069919Y-53594000D02*
X154940000Y-53594000D01*
X142494000Y-55372000D02*
X142494000Y-54169919D01*
X142494000Y-54169919D02*
X143069919Y-53594000D01*
G04 #@! TO.N,AL*
X125730000Y-55372000D02*
X117348000Y-55372000D01*
X117348000Y-55372000D02*
X107188000Y-65532000D01*
X107188000Y-65532000D02*
X102362000Y-65532000D01*
X125984000Y-55626000D02*
X137400000Y-55626000D01*
X125730000Y-55372000D02*
X125984000Y-55626000D01*
G04 #@! TO.N,VSS1*
X152400000Y-55626000D02*
X152400000Y-58166000D01*
X152400000Y-58166000D02*
X165608000Y-71374000D01*
X102870000Y-73914000D02*
X102870000Y-76454000D01*
X102870000Y-76454000D02*
X107188000Y-80772000D01*
X107188000Y-80772000D02*
X137160000Y-80772000D01*
X150368000Y-58166000D02*
X152400000Y-58166000D01*
X140462000Y-68072000D02*
X150368000Y-58166000D01*
X140462000Y-74041000D02*
X140462000Y-68072000D01*
G04 #@! TD*
D23*
G04 #@! TO.N,Vcc*
G36*
X199950000Y-52000074D02*
X199950000Y-52000075D01*
X199950001Y-97080000D01*
X94690000Y-97080000D01*
X94690000Y-93429744D01*
X96853000Y-93429744D01*
X96853000Y-94022255D01*
X96939161Y-94455417D01*
X97267375Y-94946625D01*
X97758582Y-95274839D01*
X98338000Y-95390092D01*
X98917417Y-95274839D01*
X99408625Y-94946625D01*
X99451242Y-94882844D01*
X99603414Y-95110586D01*
X99894565Y-95305126D01*
X100238000Y-95373440D01*
X101438000Y-95373440D01*
X101781435Y-95305126D01*
X102072586Y-95110586D01*
X102267126Y-94819435D01*
X102335440Y-94476000D01*
X102335440Y-93683744D01*
X132159000Y-93683744D01*
X132159000Y-94276255D01*
X132245161Y-94709417D01*
X132573375Y-95200625D01*
X133064582Y-95528839D01*
X133644000Y-95644092D01*
X134223417Y-95528839D01*
X134714625Y-95200625D01*
X134757242Y-95136844D01*
X134909414Y-95364586D01*
X135200565Y-95559126D01*
X135544000Y-95627440D01*
X136744000Y-95627440D01*
X137087435Y-95559126D01*
X137378586Y-95364586D01*
X137573126Y-95073435D01*
X137641440Y-94730000D01*
X137641440Y-93683744D01*
X163147000Y-93683744D01*
X163147000Y-94276255D01*
X163233161Y-94709417D01*
X163561375Y-95200625D01*
X164052582Y-95528839D01*
X164632000Y-95644092D01*
X165211417Y-95528839D01*
X165702625Y-95200625D01*
X165745242Y-95136844D01*
X165897414Y-95364586D01*
X166188565Y-95559126D01*
X166532000Y-95627440D01*
X167732000Y-95627440D01*
X168075435Y-95559126D01*
X168366586Y-95364586D01*
X168561126Y-95073435D01*
X168629440Y-94730000D01*
X168629440Y-93230000D01*
X168561126Y-92886565D01*
X168366586Y-92595414D01*
X168075435Y-92400874D01*
X167732000Y-92332560D01*
X166532000Y-92332560D01*
X166188565Y-92400874D01*
X165897414Y-92595414D01*
X165745242Y-92823156D01*
X165702625Y-92759375D01*
X165211418Y-92431161D01*
X164632000Y-92315908D01*
X164052583Y-92431161D01*
X163561375Y-92759375D01*
X163233161Y-93250582D01*
X163147000Y-93683744D01*
X137641440Y-93683744D01*
X137641440Y-93230000D01*
X137573126Y-92886565D01*
X137378586Y-92595414D01*
X137087435Y-92400874D01*
X136744000Y-92332560D01*
X135544000Y-92332560D01*
X135200565Y-92400874D01*
X134909414Y-92595414D01*
X134757242Y-92823156D01*
X134714625Y-92759375D01*
X134223418Y-92431161D01*
X133644000Y-92315908D01*
X133064583Y-92431161D01*
X132573375Y-92759375D01*
X132245161Y-93250582D01*
X132159000Y-93683744D01*
X102335440Y-93683744D01*
X102335440Y-92976000D01*
X102267126Y-92632565D01*
X102072586Y-92341414D01*
X101781435Y-92146874D01*
X101438000Y-92078560D01*
X100238000Y-92078560D01*
X99894565Y-92146874D01*
X99603414Y-92341414D01*
X99451242Y-92569156D01*
X99408625Y-92505375D01*
X98917418Y-92177161D01*
X98338000Y-92061908D01*
X97758583Y-92177161D01*
X97267375Y-92505375D01*
X96939161Y-92996582D01*
X96853000Y-93429744D01*
X94690000Y-93429744D01*
X94690000Y-82820000D01*
X115875060Y-82820000D01*
X115875060Y-84820000D01*
X115924343Y-85067765D01*
X116064691Y-85277809D01*
X116274735Y-85418157D01*
X116522500Y-85467440D01*
X118427500Y-85467440D01*
X118675265Y-85418157D01*
X118885309Y-85277809D01*
X119003509Y-85100912D01*
X119395590Y-85362891D01*
X120015000Y-85486100D01*
X120634411Y-85362891D01*
X121159523Y-85012023D01*
X121285000Y-84824233D01*
X121410477Y-85012023D01*
X121935590Y-85362891D01*
X122555000Y-85486100D01*
X123174411Y-85362891D01*
X123699523Y-85012023D01*
X124050391Y-84486910D01*
X124142500Y-84023849D01*
X124142500Y-83616150D01*
X124050391Y-83153089D01*
X123827829Y-82820000D01*
X151308060Y-82820000D01*
X151308060Y-84820000D01*
X151357343Y-85067765D01*
X151497691Y-85277809D01*
X151707735Y-85418157D01*
X151955500Y-85467440D01*
X153860500Y-85467440D01*
X154108265Y-85418157D01*
X154318309Y-85277809D01*
X154436509Y-85100912D01*
X154828590Y-85362891D01*
X155448000Y-85486100D01*
X156067411Y-85362891D01*
X156592523Y-85012023D01*
X156718000Y-84824233D01*
X156843477Y-85012023D01*
X157368590Y-85362891D01*
X157988000Y-85486100D01*
X158607411Y-85362891D01*
X159132523Y-85012023D01*
X159483391Y-84486910D01*
X159575500Y-84023849D01*
X159575500Y-83616150D01*
X159483391Y-83153089D01*
X159260829Y-82820000D01*
X178994060Y-82820000D01*
X178994060Y-84820000D01*
X179043343Y-85067765D01*
X179183691Y-85277809D01*
X179393735Y-85418157D01*
X179641500Y-85467440D01*
X181546500Y-85467440D01*
X181794265Y-85418157D01*
X182004309Y-85277809D01*
X182122509Y-85100912D01*
X182514590Y-85362891D01*
X183134000Y-85486100D01*
X183753411Y-85362891D01*
X184278523Y-85012023D01*
X184404000Y-84824233D01*
X184529477Y-85012023D01*
X185054590Y-85362891D01*
X185674000Y-85486100D01*
X186293411Y-85362891D01*
X186818523Y-85012023D01*
X187169391Y-84486910D01*
X187261500Y-84023849D01*
X187261500Y-83616150D01*
X187169391Y-83153089D01*
X186818523Y-82627977D01*
X186293410Y-82277109D01*
X185674000Y-82153900D01*
X185054589Y-82277109D01*
X184529477Y-82627977D01*
X184404000Y-82815767D01*
X184278523Y-82627977D01*
X183753410Y-82277109D01*
X183134000Y-82153900D01*
X182514589Y-82277109D01*
X182122509Y-82539088D01*
X182004309Y-82362191D01*
X181794265Y-82221843D01*
X181546500Y-82172560D01*
X179641500Y-82172560D01*
X179393735Y-82221843D01*
X179183691Y-82362191D01*
X179043343Y-82572235D01*
X178994060Y-82820000D01*
X159260829Y-82820000D01*
X159132523Y-82627977D01*
X158607410Y-82277109D01*
X157988000Y-82153900D01*
X157368589Y-82277109D01*
X156843477Y-82627977D01*
X156718000Y-82815767D01*
X156592523Y-82627977D01*
X156067410Y-82277109D01*
X155448000Y-82153900D01*
X154828589Y-82277109D01*
X154436509Y-82539088D01*
X154318309Y-82362191D01*
X154108265Y-82221843D01*
X153860500Y-82172560D01*
X151955500Y-82172560D01*
X151707735Y-82221843D01*
X151497691Y-82362191D01*
X151357343Y-82572235D01*
X151308060Y-82820000D01*
X123827829Y-82820000D01*
X123699523Y-82627977D01*
X123174410Y-82277109D01*
X122555000Y-82153900D01*
X121935589Y-82277109D01*
X121410477Y-82627977D01*
X121285000Y-82815767D01*
X121159523Y-82627977D01*
X120634410Y-82277109D01*
X120015000Y-82153900D01*
X119395589Y-82277109D01*
X119003509Y-82539088D01*
X118885309Y-82362191D01*
X118675265Y-82221843D01*
X118427500Y-82172560D01*
X116522500Y-82172560D01*
X116274735Y-82221843D01*
X116064691Y-82362191D01*
X115924343Y-82572235D01*
X115875060Y-82820000D01*
X94690000Y-82820000D01*
X94690000Y-73708126D01*
X101835000Y-73708126D01*
X101835000Y-74119874D01*
X101981000Y-74472350D01*
X101981001Y-76366441D01*
X101963584Y-76454000D01*
X102029680Y-76786280D01*
X102032582Y-76800870D01*
X102229068Y-77094933D01*
X102303294Y-77144529D01*
X106497471Y-81338707D01*
X106547067Y-81412933D01*
X106841130Y-81609419D01*
X107100444Y-81661000D01*
X107187999Y-81678416D01*
X107275554Y-81661000D01*
X136601650Y-81661000D01*
X136954126Y-81807000D01*
X137365874Y-81807000D01*
X137746280Y-81649431D01*
X138037431Y-81358280D01*
X138195000Y-80977874D01*
X138195000Y-80566126D01*
X138037431Y-80185720D01*
X137746280Y-79894569D01*
X137365874Y-79737000D01*
X136954126Y-79737000D01*
X136601650Y-79883000D01*
X107556236Y-79883000D01*
X103759000Y-76085765D01*
X103759000Y-75994126D01*
X129775000Y-75994126D01*
X129775000Y-76405874D01*
X129932569Y-76786280D01*
X130223720Y-77077431D01*
X130604126Y-77235000D01*
X131015874Y-77235000D01*
X131368350Y-77089000D01*
X162493289Y-77089000D01*
X162444569Y-77137720D01*
X162287000Y-77518126D01*
X162287000Y-77929874D01*
X162444569Y-78310280D01*
X162735720Y-78601431D01*
X163116126Y-78759000D01*
X163527874Y-78759000D01*
X163878045Y-78613955D01*
X192714674Y-78663417D01*
X195542159Y-80177271D01*
X195653131Y-80251420D01*
X195783428Y-80277338D01*
X195850626Y-80297773D01*
X195959161Y-80843418D01*
X196287375Y-81334625D01*
X196585761Y-81534000D01*
X196287375Y-81733375D01*
X195959161Y-82224582D01*
X195843908Y-82804000D01*
X195959161Y-83383418D01*
X196287375Y-83874625D01*
X196585761Y-84074000D01*
X196287375Y-84273375D01*
X195959161Y-84764582D01*
X195843908Y-85344000D01*
X195959161Y-85923418D01*
X196287375Y-86414625D01*
X196585761Y-86614000D01*
X196287375Y-86813375D01*
X195959161Y-87304582D01*
X195843908Y-87884000D01*
X195959161Y-88463418D01*
X196287375Y-88954625D01*
X196585761Y-89154000D01*
X196287375Y-89353375D01*
X195959161Y-89844582D01*
X195843908Y-90424000D01*
X195959161Y-91003418D01*
X196287375Y-91494625D01*
X196778582Y-91822839D01*
X197211744Y-91909000D01*
X197504256Y-91909000D01*
X197937418Y-91822839D01*
X198428625Y-91494625D01*
X198756839Y-91003418D01*
X198872092Y-90424000D01*
X198756839Y-89844582D01*
X198428625Y-89353375D01*
X198130239Y-89154000D01*
X198428625Y-88954625D01*
X198756839Y-88463418D01*
X198872092Y-87884000D01*
X198756839Y-87304582D01*
X198428625Y-86813375D01*
X198130239Y-86614000D01*
X198428625Y-86414625D01*
X198756839Y-85923418D01*
X198872092Y-85344000D01*
X198756839Y-84764582D01*
X198428625Y-84273375D01*
X198130239Y-84074000D01*
X198428625Y-83874625D01*
X198756839Y-83383418D01*
X198872092Y-82804000D01*
X198756839Y-82224582D01*
X198428625Y-81733375D01*
X198130239Y-81534000D01*
X198428625Y-81334625D01*
X198756839Y-80843418D01*
X198872092Y-80264000D01*
X198756839Y-79684582D01*
X198428625Y-79193375D01*
X198130239Y-78994000D01*
X198428625Y-78794625D01*
X198756839Y-78303418D01*
X198872092Y-77724000D01*
X198756839Y-77144582D01*
X198428625Y-76653375D01*
X198410381Y-76641184D01*
X198455765Y-76632157D01*
X198665809Y-76491809D01*
X198806157Y-76281765D01*
X198855440Y-76034000D01*
X198855440Y-74334000D01*
X198806157Y-74086235D01*
X198665809Y-73876191D01*
X198455765Y-73735843D01*
X198208000Y-73686560D01*
X196508000Y-73686560D01*
X196260235Y-73735843D01*
X196050191Y-73876191D01*
X195909843Y-74086235D01*
X195860560Y-74334000D01*
X195860560Y-74380371D01*
X195617067Y-74543067D01*
X195567471Y-74617294D01*
X194873765Y-75311000D01*
X131368350Y-75311000D01*
X131015874Y-75165000D01*
X130604126Y-75165000D01*
X130223720Y-75322569D01*
X129932569Y-75613720D01*
X129775000Y-75994126D01*
X103759000Y-75994126D01*
X103759000Y-74472350D01*
X103905000Y-74119874D01*
X103905000Y-73708126D01*
X103747431Y-73327720D01*
X103456280Y-73036569D01*
X103075874Y-72879000D01*
X102664126Y-72879000D01*
X102283720Y-73036569D01*
X101992569Y-73327720D01*
X101835000Y-73708126D01*
X94690000Y-73708126D01*
X94690000Y-70660126D01*
X112757000Y-70660126D01*
X112757000Y-71071874D01*
X112914569Y-71452280D01*
X113205720Y-71743431D01*
X113586126Y-71901000D01*
X113997874Y-71901000D01*
X114350350Y-71755000D01*
X115776504Y-71755000D01*
X115748060Y-71898000D01*
X115748060Y-73898000D01*
X115797343Y-74145765D01*
X115937691Y-74355809D01*
X116147735Y-74496157D01*
X116395500Y-74545440D01*
X118300500Y-74545440D01*
X118548265Y-74496157D01*
X118758309Y-74355809D01*
X118895255Y-74150857D01*
X119021076Y-74273973D01*
X119515020Y-74488563D01*
X119761000Y-74368594D01*
X119761000Y-73025000D01*
X119741000Y-73025000D01*
X119741000Y-72771000D01*
X119761000Y-72771000D01*
X119761000Y-72751000D01*
X120015000Y-72751000D01*
X120015000Y-72771000D01*
X120035000Y-72771000D01*
X120035000Y-73025000D01*
X120015000Y-73025000D01*
X120015000Y-74368594D01*
X120260980Y-74488563D01*
X120754924Y-74273973D01*
X121148841Y-73888526D01*
X121283477Y-74090023D01*
X121808590Y-74440891D01*
X122428000Y-74564100D01*
X123047411Y-74440891D01*
X123572523Y-74090023D01*
X123923391Y-73564910D01*
X124015500Y-73101849D01*
X124015500Y-72694150D01*
X123923391Y-72231089D01*
X123572523Y-71705977D01*
X123047410Y-71355109D01*
X122428000Y-71231900D01*
X122126590Y-71291854D01*
X122047000Y-71212265D01*
X122047000Y-70953556D01*
X122064416Y-70866000D01*
X121995419Y-70519130D01*
X121798933Y-70225067D01*
X121504870Y-70028581D01*
X121245556Y-69977000D01*
X121158000Y-69959584D01*
X121070444Y-69977000D01*
X114350350Y-69977000D01*
X113997874Y-69831000D01*
X113586126Y-69831000D01*
X113205720Y-69988569D01*
X112914569Y-70279720D01*
X112757000Y-70660126D01*
X94690000Y-70660126D01*
X94690000Y-65326126D01*
X101327000Y-65326126D01*
X101327000Y-65737874D01*
X101484569Y-66118280D01*
X101775720Y-66409431D01*
X102156126Y-66567000D01*
X102567874Y-66567000D01*
X102920350Y-66421000D01*
X107100445Y-66421000D01*
X107188000Y-66438416D01*
X107275555Y-66421000D01*
X107275556Y-66421000D01*
X107534870Y-66369419D01*
X107828933Y-66172933D01*
X107878531Y-66098704D01*
X111228560Y-62748675D01*
X111228560Y-64146000D01*
X111277843Y-64393765D01*
X111418191Y-64603809D01*
X111628235Y-64744157D01*
X111876000Y-64793440D01*
X113019325Y-64793440D01*
X112807764Y-65005001D01*
X111485553Y-65005001D01*
X111397998Y-64987585D01*
X111310443Y-65005001D01*
X111051129Y-65056582D01*
X110757066Y-65253068D01*
X110738169Y-65281350D01*
X110411720Y-65416569D01*
X110120569Y-65707720D01*
X109963000Y-66088126D01*
X109963000Y-66499874D01*
X110120569Y-66880280D01*
X110411720Y-67171431D01*
X110792126Y-67329000D01*
X111203874Y-67329000D01*
X111584280Y-67171431D01*
X111875431Y-66880280D01*
X111915725Y-66783001D01*
X113088444Y-66783001D01*
X113175999Y-66800417D01*
X113263554Y-66783001D01*
X113263555Y-66783001D01*
X113522869Y-66731420D01*
X113816932Y-66534934D01*
X113866530Y-66460705D01*
X116407446Y-63919789D01*
X126703319Y-63919789D01*
X126703319Y-65619789D01*
X126752602Y-65867554D01*
X126892950Y-66077598D01*
X127102994Y-66217946D01*
X127350759Y-66267229D01*
X129050759Y-66267229D01*
X129298524Y-66217946D01*
X129508568Y-66077598D01*
X129648916Y-65867554D01*
X129698199Y-65619789D01*
X129698199Y-63919789D01*
X129665222Y-63754000D01*
X139658928Y-63754000D01*
X139778062Y-64352927D01*
X140117327Y-64860673D01*
X140625073Y-65199938D01*
X141072818Y-65289000D01*
X141375182Y-65289000D01*
X141822927Y-65199938D01*
X142330673Y-64860673D01*
X142669938Y-64352927D01*
X142789072Y-63754000D01*
X142669938Y-63155073D01*
X142330673Y-62647327D01*
X141822927Y-62308062D01*
X141375182Y-62219000D01*
X141072818Y-62219000D01*
X140625073Y-62308062D01*
X140117327Y-62647327D01*
X139778062Y-63155073D01*
X139658928Y-63754000D01*
X129665222Y-63754000D01*
X129648916Y-63672024D01*
X129508568Y-63461980D01*
X129298524Y-63321632D01*
X129195051Y-63301050D01*
X129472404Y-62996713D01*
X129642235Y-62586679D01*
X129520914Y-62356789D01*
X128327759Y-62356789D01*
X128327759Y-62376789D01*
X128073759Y-62376789D01*
X128073759Y-62356789D01*
X126880604Y-62356789D01*
X126759283Y-62586679D01*
X126929114Y-62996713D01*
X127206467Y-63301050D01*
X127102994Y-63321632D01*
X126892950Y-63461980D01*
X126752602Y-63672024D01*
X126703319Y-63919789D01*
X116407446Y-63919789D01*
X117152707Y-63174529D01*
X117226933Y-63124933D01*
X117312607Y-62996713D01*
X117423419Y-62830871D01*
X117492416Y-62484000D01*
X117475000Y-62396444D01*
X117475000Y-61872899D01*
X126759283Y-61872899D01*
X126880604Y-62102789D01*
X128073759Y-62102789D01*
X128073759Y-60908970D01*
X128327759Y-60908970D01*
X128327759Y-62102789D01*
X129520914Y-62102789D01*
X129642235Y-61872899D01*
X129472404Y-61462865D01*
X129082117Y-61034606D01*
X128557651Y-60788303D01*
X128327759Y-60908970D01*
X128073759Y-60908970D01*
X127843867Y-60788303D01*
X127319401Y-61034606D01*
X126929114Y-61462865D01*
X126759283Y-61872899D01*
X117475000Y-61872899D01*
X117475000Y-58547000D01*
X142905445Y-58547000D01*
X142993000Y-58564416D01*
X143080555Y-58547000D01*
X143080556Y-58547000D01*
X143339870Y-58495419D01*
X143633933Y-58298933D01*
X143683531Y-58224704D01*
X144685759Y-57222477D01*
X144900000Y-57265092D01*
X145479417Y-57149839D01*
X145970625Y-56821625D01*
X146150000Y-56553171D01*
X146329375Y-56821625D01*
X146820582Y-57149839D01*
X147400000Y-57265092D01*
X147979417Y-57149839D01*
X148470625Y-56821625D01*
X148650000Y-56553171D01*
X148829375Y-56821625D01*
X149320582Y-57149839D01*
X149900000Y-57265092D01*
X150479417Y-57149839D01*
X150970625Y-56821625D01*
X151013242Y-56757844D01*
X151165414Y-56985586D01*
X151456565Y-57180126D01*
X151511001Y-57190954D01*
X151511001Y-57277000D01*
X150455556Y-57277000D01*
X150368000Y-57259584D01*
X150021129Y-57328581D01*
X149822783Y-57461112D01*
X149727067Y-57525067D01*
X149677471Y-57599293D01*
X139895294Y-67381471D01*
X139821068Y-67431067D01*
X139771472Y-67505293D01*
X139771471Y-67505294D01*
X139624582Y-67725130D01*
X139555584Y-68072000D01*
X139573001Y-68159559D01*
X139573000Y-73482650D01*
X139427000Y-73835126D01*
X139427000Y-74246874D01*
X139584569Y-74627280D01*
X139875720Y-74918431D01*
X140256126Y-75076000D01*
X140667874Y-75076000D01*
X141048280Y-74918431D01*
X141339431Y-74627280D01*
X141497000Y-74246874D01*
X141497000Y-73835126D01*
X141351000Y-73482650D01*
X141351000Y-70660126D01*
X148571000Y-70660126D01*
X148571000Y-71071874D01*
X148728569Y-71452280D01*
X149019720Y-71743431D01*
X149400126Y-71901000D01*
X149428693Y-71901000D01*
X149513130Y-71957419D01*
X149772444Y-72009000D01*
X149772448Y-72009000D01*
X149859999Y-72026415D01*
X149947550Y-72009000D01*
X151457059Y-72009000D01*
X151357343Y-72158235D01*
X151308060Y-72406000D01*
X151308060Y-74406000D01*
X151357343Y-74653765D01*
X151497691Y-74863809D01*
X151707735Y-75004157D01*
X151955500Y-75053440D01*
X153860500Y-75053440D01*
X154108265Y-75004157D01*
X154318309Y-74863809D01*
X154455255Y-74658857D01*
X154581076Y-74781973D01*
X155075020Y-74996563D01*
X155321000Y-74876594D01*
X155321000Y-73533000D01*
X155301000Y-73533000D01*
X155301000Y-73279000D01*
X155321000Y-73279000D01*
X155321000Y-73259000D01*
X155575000Y-73259000D01*
X155575000Y-73279000D01*
X155595000Y-73279000D01*
X155595000Y-73533000D01*
X155575000Y-73533000D01*
X155575000Y-74876594D01*
X155820980Y-74996563D01*
X156314924Y-74781973D01*
X156708841Y-74396526D01*
X156843477Y-74598023D01*
X157368590Y-74948891D01*
X157988000Y-75072100D01*
X158607411Y-74948891D01*
X159132523Y-74598023D01*
X159483391Y-74072910D01*
X159575500Y-73609849D01*
X159575500Y-73202150D01*
X159483391Y-72739089D01*
X159132523Y-72213977D01*
X158607410Y-71863109D01*
X157988000Y-71739900D01*
X157686590Y-71799854D01*
X156440031Y-70553296D01*
X156390433Y-70479067D01*
X156096370Y-70282581D01*
X155837056Y-70231000D01*
X155837055Y-70231000D01*
X155749500Y-70213584D01*
X155661945Y-70231000D01*
X150434711Y-70231000D01*
X150192280Y-69988569D01*
X149811874Y-69831000D01*
X149400126Y-69831000D01*
X149019720Y-69988569D01*
X148728569Y-70279720D01*
X148571000Y-70660126D01*
X141351000Y-70660126D01*
X141351000Y-68440235D01*
X146937235Y-62854000D01*
X147296560Y-62854000D01*
X147296560Y-64654000D01*
X147345843Y-64901765D01*
X147486191Y-65111809D01*
X147696235Y-65252157D01*
X147944000Y-65301440D01*
X149744000Y-65301440D01*
X149991765Y-65252157D01*
X150201809Y-65111809D01*
X150342157Y-64901765D01*
X150391440Y-64654000D01*
X150391440Y-62854000D01*
X150342157Y-62606235D01*
X150201809Y-62396191D01*
X149991765Y-62255843D01*
X149744000Y-62206560D01*
X147944000Y-62206560D01*
X147696235Y-62255843D01*
X147486191Y-62396191D01*
X147345843Y-62606235D01*
X147296560Y-62854000D01*
X146937235Y-62854000D01*
X150736236Y-59055000D01*
X152031765Y-59055000D01*
X164584570Y-71607806D01*
X164730569Y-71960280D01*
X165021720Y-72251431D01*
X165402126Y-72409000D01*
X165813874Y-72409000D01*
X166194280Y-72251431D01*
X166485431Y-71960280D01*
X166643000Y-71579874D01*
X166643000Y-71168126D01*
X166485431Y-70787720D01*
X166357837Y-70660126D01*
X177781000Y-70660126D01*
X177781000Y-71071874D01*
X177938569Y-71452280D01*
X178229720Y-71743431D01*
X178610126Y-71901000D01*
X179000317Y-71901000D01*
X178929691Y-71948191D01*
X178789343Y-72158235D01*
X178740060Y-72406000D01*
X178740060Y-74406000D01*
X178789343Y-74653765D01*
X178929691Y-74863809D01*
X179139735Y-75004157D01*
X179387500Y-75053440D01*
X181292500Y-75053440D01*
X181540265Y-75004157D01*
X181750309Y-74863809D01*
X181887255Y-74658857D01*
X182013076Y-74781973D01*
X182507020Y-74996563D01*
X182753000Y-74876594D01*
X182753000Y-73533000D01*
X182733000Y-73533000D01*
X182733000Y-73279000D01*
X182753000Y-73279000D01*
X182753000Y-73259000D01*
X183007000Y-73259000D01*
X183007000Y-73279000D01*
X183027000Y-73279000D01*
X183027000Y-73533000D01*
X183007000Y-73533000D01*
X183007000Y-74876594D01*
X183252980Y-74996563D01*
X183746924Y-74781973D01*
X184140841Y-74396526D01*
X184275477Y-74598023D01*
X184800590Y-74948891D01*
X185420000Y-75072100D01*
X186039411Y-74948891D01*
X186564523Y-74598023D01*
X186915391Y-74072910D01*
X187007500Y-73609849D01*
X187007500Y-73202150D01*
X186915391Y-72739089D01*
X186564523Y-72213977D01*
X186039410Y-71863109D01*
X185420000Y-71739900D01*
X185118590Y-71799854D01*
X184531000Y-71212265D01*
X184531000Y-70953556D01*
X184548416Y-70866000D01*
X184479419Y-70519130D01*
X184282933Y-70225067D01*
X183988870Y-70028581D01*
X183729556Y-69977000D01*
X183642000Y-69959584D01*
X183554444Y-69977000D01*
X179374350Y-69977000D01*
X179021874Y-69831000D01*
X178610126Y-69831000D01*
X178229720Y-69988569D01*
X177938569Y-70279720D01*
X177781000Y-70660126D01*
X166357837Y-70660126D01*
X166194280Y-70496569D01*
X165841806Y-70350570D01*
X153289000Y-57797765D01*
X153289000Y-57190954D01*
X153343435Y-57180126D01*
X153634586Y-56985586D01*
X153829126Y-56694435D01*
X153897440Y-56351000D01*
X153897440Y-54901000D01*
X153829126Y-54557565D01*
X153779303Y-54483000D01*
X154503466Y-54483000D01*
X162853836Y-65289362D01*
X162935067Y-65410933D01*
X163034910Y-65477646D01*
X163125455Y-65556510D01*
X163166616Y-65570327D01*
X163243720Y-65647431D01*
X163624126Y-65805000D01*
X164035874Y-65805000D01*
X164416280Y-65647431D01*
X164707431Y-65356280D01*
X164865000Y-64975874D01*
X164865000Y-64564126D01*
X164707431Y-64183720D01*
X164416280Y-63892569D01*
X164081745Y-63754000D01*
X168868928Y-63754000D01*
X168988062Y-64352927D01*
X169327327Y-64860673D01*
X169835073Y-65199938D01*
X170282818Y-65289000D01*
X170585182Y-65289000D01*
X171032927Y-65199938D01*
X171540673Y-64860673D01*
X171879938Y-64352927D01*
X171999072Y-63754000D01*
X171879938Y-63155073D01*
X171678768Y-62854000D01*
X176506560Y-62854000D01*
X176506560Y-64654000D01*
X176555843Y-64901765D01*
X176696191Y-65111809D01*
X176906235Y-65252157D01*
X177154000Y-65301440D01*
X178954000Y-65301440D01*
X179201765Y-65252157D01*
X179411809Y-65111809D01*
X179552157Y-64901765D01*
X179601440Y-64654000D01*
X179601440Y-62854000D01*
X179552157Y-62606235D01*
X179411809Y-62396191D01*
X179201765Y-62255843D01*
X178954000Y-62206560D01*
X177154000Y-62206560D01*
X176906235Y-62255843D01*
X176696191Y-62396191D01*
X176555843Y-62606235D01*
X176506560Y-62854000D01*
X171678768Y-62854000D01*
X171540673Y-62647327D01*
X171032927Y-62308062D01*
X170585182Y-62219000D01*
X170282818Y-62219000D01*
X169835073Y-62308062D01*
X169327327Y-62647327D01*
X168988062Y-63155073D01*
X168868928Y-63754000D01*
X164081745Y-63754000D01*
X164035874Y-63735000D01*
X163899716Y-63735000D01*
X155936452Y-53429600D01*
X188892943Y-53429600D01*
X188892943Y-57249600D01*
X194748657Y-57249600D01*
X194748657Y-53429600D01*
X188892943Y-53429600D01*
X155936452Y-53429600D01*
X155662170Y-53074647D01*
X155580933Y-52953067D01*
X155481086Y-52886351D01*
X155390544Y-52807490D01*
X155335315Y-52788951D01*
X155286870Y-52756581D01*
X155169094Y-52733154D01*
X155055263Y-52694943D01*
X154909407Y-52705000D01*
X143157469Y-52705000D01*
X143069918Y-52687585D01*
X142982367Y-52705000D01*
X142982363Y-52705000D01*
X142723049Y-52756581D01*
X142428986Y-52953067D01*
X142379389Y-53027294D01*
X141927294Y-53479390D01*
X141853068Y-53528986D01*
X141803472Y-53603212D01*
X141803471Y-53603213D01*
X141656582Y-53823049D01*
X141587584Y-54169919D01*
X141603022Y-54247530D01*
X141329375Y-54430375D01*
X141150000Y-54698829D01*
X140970625Y-54430375D01*
X140479418Y-54102161D01*
X139900000Y-53986908D01*
X139320583Y-54102161D01*
X138829375Y-54430375D01*
X138650000Y-54698829D01*
X138470625Y-54430375D01*
X137979418Y-54102161D01*
X137400000Y-53986908D01*
X136820583Y-54102161D01*
X136329375Y-54430375D01*
X136124495Y-54737000D01*
X126374897Y-54737000D01*
X126370933Y-54731067D01*
X126076870Y-54534581D01*
X125817556Y-54483000D01*
X125817555Y-54483000D01*
X125730000Y-54465584D01*
X125642445Y-54483000D01*
X117435555Y-54483000D01*
X117348000Y-54465584D01*
X117260445Y-54483000D01*
X117260444Y-54483000D01*
X117001130Y-54534581D01*
X116707067Y-54731067D01*
X116657471Y-54805293D01*
X106819765Y-64643000D01*
X105828168Y-64643000D01*
X106262673Y-64352673D01*
X106601938Y-63844927D01*
X106721072Y-63246000D01*
X106601938Y-62647073D01*
X106262673Y-62139327D01*
X105754927Y-61800062D01*
X105307182Y-61711000D01*
X105004818Y-61711000D01*
X104557073Y-61800062D01*
X104049327Y-62139327D01*
X103710062Y-62647073D01*
X103590928Y-63246000D01*
X103710062Y-63844927D01*
X104049327Y-64352673D01*
X104483832Y-64643000D01*
X102920350Y-64643000D01*
X102567874Y-64497000D01*
X102156126Y-64497000D01*
X101775720Y-64654569D01*
X101484569Y-64945720D01*
X101327000Y-65326126D01*
X94690000Y-65326126D01*
X94690000Y-50240000D01*
X199950001Y-50240000D01*
X199950000Y-52000074D01*
X199950000Y-52000074D01*
G37*
X199950000Y-52000074D02*
X199950000Y-52000075D01*
X199950001Y-97080000D01*
X94690000Y-97080000D01*
X94690000Y-93429744D01*
X96853000Y-93429744D01*
X96853000Y-94022255D01*
X96939161Y-94455417D01*
X97267375Y-94946625D01*
X97758582Y-95274839D01*
X98338000Y-95390092D01*
X98917417Y-95274839D01*
X99408625Y-94946625D01*
X99451242Y-94882844D01*
X99603414Y-95110586D01*
X99894565Y-95305126D01*
X100238000Y-95373440D01*
X101438000Y-95373440D01*
X101781435Y-95305126D01*
X102072586Y-95110586D01*
X102267126Y-94819435D01*
X102335440Y-94476000D01*
X102335440Y-93683744D01*
X132159000Y-93683744D01*
X132159000Y-94276255D01*
X132245161Y-94709417D01*
X132573375Y-95200625D01*
X133064582Y-95528839D01*
X133644000Y-95644092D01*
X134223417Y-95528839D01*
X134714625Y-95200625D01*
X134757242Y-95136844D01*
X134909414Y-95364586D01*
X135200565Y-95559126D01*
X135544000Y-95627440D01*
X136744000Y-95627440D01*
X137087435Y-95559126D01*
X137378586Y-95364586D01*
X137573126Y-95073435D01*
X137641440Y-94730000D01*
X137641440Y-93683744D01*
X163147000Y-93683744D01*
X163147000Y-94276255D01*
X163233161Y-94709417D01*
X163561375Y-95200625D01*
X164052582Y-95528839D01*
X164632000Y-95644092D01*
X165211417Y-95528839D01*
X165702625Y-95200625D01*
X165745242Y-95136844D01*
X165897414Y-95364586D01*
X166188565Y-95559126D01*
X166532000Y-95627440D01*
X167732000Y-95627440D01*
X168075435Y-95559126D01*
X168366586Y-95364586D01*
X168561126Y-95073435D01*
X168629440Y-94730000D01*
X168629440Y-93230000D01*
X168561126Y-92886565D01*
X168366586Y-92595414D01*
X168075435Y-92400874D01*
X167732000Y-92332560D01*
X166532000Y-92332560D01*
X166188565Y-92400874D01*
X165897414Y-92595414D01*
X165745242Y-92823156D01*
X165702625Y-92759375D01*
X165211418Y-92431161D01*
X164632000Y-92315908D01*
X164052583Y-92431161D01*
X163561375Y-92759375D01*
X163233161Y-93250582D01*
X163147000Y-93683744D01*
X137641440Y-93683744D01*
X137641440Y-93230000D01*
X137573126Y-92886565D01*
X137378586Y-92595414D01*
X137087435Y-92400874D01*
X136744000Y-92332560D01*
X135544000Y-92332560D01*
X135200565Y-92400874D01*
X134909414Y-92595414D01*
X134757242Y-92823156D01*
X134714625Y-92759375D01*
X134223418Y-92431161D01*
X133644000Y-92315908D01*
X133064583Y-92431161D01*
X132573375Y-92759375D01*
X132245161Y-93250582D01*
X132159000Y-93683744D01*
X102335440Y-93683744D01*
X102335440Y-92976000D01*
X102267126Y-92632565D01*
X102072586Y-92341414D01*
X101781435Y-92146874D01*
X101438000Y-92078560D01*
X100238000Y-92078560D01*
X99894565Y-92146874D01*
X99603414Y-92341414D01*
X99451242Y-92569156D01*
X99408625Y-92505375D01*
X98917418Y-92177161D01*
X98338000Y-92061908D01*
X97758583Y-92177161D01*
X97267375Y-92505375D01*
X96939161Y-92996582D01*
X96853000Y-93429744D01*
X94690000Y-93429744D01*
X94690000Y-82820000D01*
X115875060Y-82820000D01*
X115875060Y-84820000D01*
X115924343Y-85067765D01*
X116064691Y-85277809D01*
X116274735Y-85418157D01*
X116522500Y-85467440D01*
X118427500Y-85467440D01*
X118675265Y-85418157D01*
X118885309Y-85277809D01*
X119003509Y-85100912D01*
X119395590Y-85362891D01*
X120015000Y-85486100D01*
X120634411Y-85362891D01*
X121159523Y-85012023D01*
X121285000Y-84824233D01*
X121410477Y-85012023D01*
X121935590Y-85362891D01*
X122555000Y-85486100D01*
X123174411Y-85362891D01*
X123699523Y-85012023D01*
X124050391Y-84486910D01*
X124142500Y-84023849D01*
X124142500Y-83616150D01*
X124050391Y-83153089D01*
X123827829Y-82820000D01*
X151308060Y-82820000D01*
X151308060Y-84820000D01*
X151357343Y-85067765D01*
X151497691Y-85277809D01*
X151707735Y-85418157D01*
X151955500Y-85467440D01*
X153860500Y-85467440D01*
X154108265Y-85418157D01*
X154318309Y-85277809D01*
X154436509Y-85100912D01*
X154828590Y-85362891D01*
X155448000Y-85486100D01*
X156067411Y-85362891D01*
X156592523Y-85012023D01*
X156718000Y-84824233D01*
X156843477Y-85012023D01*
X157368590Y-85362891D01*
X157988000Y-85486100D01*
X158607411Y-85362891D01*
X159132523Y-85012023D01*
X159483391Y-84486910D01*
X159575500Y-84023849D01*
X159575500Y-83616150D01*
X159483391Y-83153089D01*
X159260829Y-82820000D01*
X178994060Y-82820000D01*
X178994060Y-84820000D01*
X179043343Y-85067765D01*
X179183691Y-85277809D01*
X179393735Y-85418157D01*
X179641500Y-85467440D01*
X181546500Y-85467440D01*
X181794265Y-85418157D01*
X182004309Y-85277809D01*
X182122509Y-85100912D01*
X182514590Y-85362891D01*
X183134000Y-85486100D01*
X183753411Y-85362891D01*
X184278523Y-85012023D01*
X184404000Y-84824233D01*
X184529477Y-85012023D01*
X185054590Y-85362891D01*
X185674000Y-85486100D01*
X186293411Y-85362891D01*
X186818523Y-85012023D01*
X187169391Y-84486910D01*
X187261500Y-84023849D01*
X187261500Y-83616150D01*
X187169391Y-83153089D01*
X186818523Y-82627977D01*
X186293410Y-82277109D01*
X185674000Y-82153900D01*
X185054589Y-82277109D01*
X184529477Y-82627977D01*
X184404000Y-82815767D01*
X184278523Y-82627977D01*
X183753410Y-82277109D01*
X183134000Y-82153900D01*
X182514589Y-82277109D01*
X182122509Y-82539088D01*
X182004309Y-82362191D01*
X181794265Y-82221843D01*
X181546500Y-82172560D01*
X179641500Y-82172560D01*
X179393735Y-82221843D01*
X179183691Y-82362191D01*
X179043343Y-82572235D01*
X178994060Y-82820000D01*
X159260829Y-82820000D01*
X159132523Y-82627977D01*
X158607410Y-82277109D01*
X157988000Y-82153900D01*
X157368589Y-82277109D01*
X156843477Y-82627977D01*
X156718000Y-82815767D01*
X156592523Y-82627977D01*
X156067410Y-82277109D01*
X155448000Y-82153900D01*
X154828589Y-82277109D01*
X154436509Y-82539088D01*
X154318309Y-82362191D01*
X154108265Y-82221843D01*
X153860500Y-82172560D01*
X151955500Y-82172560D01*
X151707735Y-82221843D01*
X151497691Y-82362191D01*
X151357343Y-82572235D01*
X151308060Y-82820000D01*
X123827829Y-82820000D01*
X123699523Y-82627977D01*
X123174410Y-82277109D01*
X122555000Y-82153900D01*
X121935589Y-82277109D01*
X121410477Y-82627977D01*
X121285000Y-82815767D01*
X121159523Y-82627977D01*
X120634410Y-82277109D01*
X120015000Y-82153900D01*
X119395589Y-82277109D01*
X119003509Y-82539088D01*
X118885309Y-82362191D01*
X118675265Y-82221843D01*
X118427500Y-82172560D01*
X116522500Y-82172560D01*
X116274735Y-82221843D01*
X116064691Y-82362191D01*
X115924343Y-82572235D01*
X115875060Y-82820000D01*
X94690000Y-82820000D01*
X94690000Y-73708126D01*
X101835000Y-73708126D01*
X101835000Y-74119874D01*
X101981000Y-74472350D01*
X101981001Y-76366441D01*
X101963584Y-76454000D01*
X102029680Y-76786280D01*
X102032582Y-76800870D01*
X102229068Y-77094933D01*
X102303294Y-77144529D01*
X106497471Y-81338707D01*
X106547067Y-81412933D01*
X106841130Y-81609419D01*
X107100444Y-81661000D01*
X107187999Y-81678416D01*
X107275554Y-81661000D01*
X136601650Y-81661000D01*
X136954126Y-81807000D01*
X137365874Y-81807000D01*
X137746280Y-81649431D01*
X138037431Y-81358280D01*
X138195000Y-80977874D01*
X138195000Y-80566126D01*
X138037431Y-80185720D01*
X137746280Y-79894569D01*
X137365874Y-79737000D01*
X136954126Y-79737000D01*
X136601650Y-79883000D01*
X107556236Y-79883000D01*
X103759000Y-76085765D01*
X103759000Y-75994126D01*
X129775000Y-75994126D01*
X129775000Y-76405874D01*
X129932569Y-76786280D01*
X130223720Y-77077431D01*
X130604126Y-77235000D01*
X131015874Y-77235000D01*
X131368350Y-77089000D01*
X162493289Y-77089000D01*
X162444569Y-77137720D01*
X162287000Y-77518126D01*
X162287000Y-77929874D01*
X162444569Y-78310280D01*
X162735720Y-78601431D01*
X163116126Y-78759000D01*
X163527874Y-78759000D01*
X163878045Y-78613955D01*
X192714674Y-78663417D01*
X195542159Y-80177271D01*
X195653131Y-80251420D01*
X195783428Y-80277338D01*
X195850626Y-80297773D01*
X195959161Y-80843418D01*
X196287375Y-81334625D01*
X196585761Y-81534000D01*
X196287375Y-81733375D01*
X195959161Y-82224582D01*
X195843908Y-82804000D01*
X195959161Y-83383418D01*
X196287375Y-83874625D01*
X196585761Y-84074000D01*
X196287375Y-84273375D01*
X195959161Y-84764582D01*
X195843908Y-85344000D01*
X195959161Y-85923418D01*
X196287375Y-86414625D01*
X196585761Y-86614000D01*
X196287375Y-86813375D01*
X195959161Y-87304582D01*
X195843908Y-87884000D01*
X195959161Y-88463418D01*
X196287375Y-88954625D01*
X196585761Y-89154000D01*
X196287375Y-89353375D01*
X195959161Y-89844582D01*
X195843908Y-90424000D01*
X195959161Y-91003418D01*
X196287375Y-91494625D01*
X196778582Y-91822839D01*
X197211744Y-91909000D01*
X197504256Y-91909000D01*
X197937418Y-91822839D01*
X198428625Y-91494625D01*
X198756839Y-91003418D01*
X198872092Y-90424000D01*
X198756839Y-89844582D01*
X198428625Y-89353375D01*
X198130239Y-89154000D01*
X198428625Y-88954625D01*
X198756839Y-88463418D01*
X198872092Y-87884000D01*
X198756839Y-87304582D01*
X198428625Y-86813375D01*
X198130239Y-86614000D01*
X198428625Y-86414625D01*
X198756839Y-85923418D01*
X198872092Y-85344000D01*
X198756839Y-84764582D01*
X198428625Y-84273375D01*
X198130239Y-84074000D01*
X198428625Y-83874625D01*
X198756839Y-83383418D01*
X198872092Y-82804000D01*
X198756839Y-82224582D01*
X198428625Y-81733375D01*
X198130239Y-81534000D01*
X198428625Y-81334625D01*
X198756839Y-80843418D01*
X198872092Y-80264000D01*
X198756839Y-79684582D01*
X198428625Y-79193375D01*
X198130239Y-78994000D01*
X198428625Y-78794625D01*
X198756839Y-78303418D01*
X198872092Y-77724000D01*
X198756839Y-77144582D01*
X198428625Y-76653375D01*
X198410381Y-76641184D01*
X198455765Y-76632157D01*
X198665809Y-76491809D01*
X198806157Y-76281765D01*
X198855440Y-76034000D01*
X198855440Y-74334000D01*
X198806157Y-74086235D01*
X198665809Y-73876191D01*
X198455765Y-73735843D01*
X198208000Y-73686560D01*
X196508000Y-73686560D01*
X196260235Y-73735843D01*
X196050191Y-73876191D01*
X195909843Y-74086235D01*
X195860560Y-74334000D01*
X195860560Y-74380371D01*
X195617067Y-74543067D01*
X195567471Y-74617294D01*
X194873765Y-75311000D01*
X131368350Y-75311000D01*
X131015874Y-75165000D01*
X130604126Y-75165000D01*
X130223720Y-75322569D01*
X129932569Y-75613720D01*
X129775000Y-75994126D01*
X103759000Y-75994126D01*
X103759000Y-74472350D01*
X103905000Y-74119874D01*
X103905000Y-73708126D01*
X103747431Y-73327720D01*
X103456280Y-73036569D01*
X103075874Y-72879000D01*
X102664126Y-72879000D01*
X102283720Y-73036569D01*
X101992569Y-73327720D01*
X101835000Y-73708126D01*
X94690000Y-73708126D01*
X94690000Y-70660126D01*
X112757000Y-70660126D01*
X112757000Y-71071874D01*
X112914569Y-71452280D01*
X113205720Y-71743431D01*
X113586126Y-71901000D01*
X113997874Y-71901000D01*
X114350350Y-71755000D01*
X115776504Y-71755000D01*
X115748060Y-71898000D01*
X115748060Y-73898000D01*
X115797343Y-74145765D01*
X115937691Y-74355809D01*
X116147735Y-74496157D01*
X116395500Y-74545440D01*
X118300500Y-74545440D01*
X118548265Y-74496157D01*
X118758309Y-74355809D01*
X118895255Y-74150857D01*
X119021076Y-74273973D01*
X119515020Y-74488563D01*
X119761000Y-74368594D01*
X119761000Y-73025000D01*
X119741000Y-73025000D01*
X119741000Y-72771000D01*
X119761000Y-72771000D01*
X119761000Y-72751000D01*
X120015000Y-72751000D01*
X120015000Y-72771000D01*
X120035000Y-72771000D01*
X120035000Y-73025000D01*
X120015000Y-73025000D01*
X120015000Y-74368594D01*
X120260980Y-74488563D01*
X120754924Y-74273973D01*
X121148841Y-73888526D01*
X121283477Y-74090023D01*
X121808590Y-74440891D01*
X122428000Y-74564100D01*
X123047411Y-74440891D01*
X123572523Y-74090023D01*
X123923391Y-73564910D01*
X124015500Y-73101849D01*
X124015500Y-72694150D01*
X123923391Y-72231089D01*
X123572523Y-71705977D01*
X123047410Y-71355109D01*
X122428000Y-71231900D01*
X122126590Y-71291854D01*
X122047000Y-71212265D01*
X122047000Y-70953556D01*
X122064416Y-70866000D01*
X121995419Y-70519130D01*
X121798933Y-70225067D01*
X121504870Y-70028581D01*
X121245556Y-69977000D01*
X121158000Y-69959584D01*
X121070444Y-69977000D01*
X114350350Y-69977000D01*
X113997874Y-69831000D01*
X113586126Y-69831000D01*
X113205720Y-69988569D01*
X112914569Y-70279720D01*
X112757000Y-70660126D01*
X94690000Y-70660126D01*
X94690000Y-65326126D01*
X101327000Y-65326126D01*
X101327000Y-65737874D01*
X101484569Y-66118280D01*
X101775720Y-66409431D01*
X102156126Y-66567000D01*
X102567874Y-66567000D01*
X102920350Y-66421000D01*
X107100445Y-66421000D01*
X107188000Y-66438416D01*
X107275555Y-66421000D01*
X107275556Y-66421000D01*
X107534870Y-66369419D01*
X107828933Y-66172933D01*
X107878531Y-66098704D01*
X111228560Y-62748675D01*
X111228560Y-64146000D01*
X111277843Y-64393765D01*
X111418191Y-64603809D01*
X111628235Y-64744157D01*
X111876000Y-64793440D01*
X113019325Y-64793440D01*
X112807764Y-65005001D01*
X111485553Y-65005001D01*
X111397998Y-64987585D01*
X111310443Y-65005001D01*
X111051129Y-65056582D01*
X110757066Y-65253068D01*
X110738169Y-65281350D01*
X110411720Y-65416569D01*
X110120569Y-65707720D01*
X109963000Y-66088126D01*
X109963000Y-66499874D01*
X110120569Y-66880280D01*
X110411720Y-67171431D01*
X110792126Y-67329000D01*
X111203874Y-67329000D01*
X111584280Y-67171431D01*
X111875431Y-66880280D01*
X111915725Y-66783001D01*
X113088444Y-66783001D01*
X113175999Y-66800417D01*
X113263554Y-66783001D01*
X113263555Y-66783001D01*
X113522869Y-66731420D01*
X113816932Y-66534934D01*
X113866530Y-66460705D01*
X116407446Y-63919789D01*
X126703319Y-63919789D01*
X126703319Y-65619789D01*
X126752602Y-65867554D01*
X126892950Y-66077598D01*
X127102994Y-66217946D01*
X127350759Y-66267229D01*
X129050759Y-66267229D01*
X129298524Y-66217946D01*
X129508568Y-66077598D01*
X129648916Y-65867554D01*
X129698199Y-65619789D01*
X129698199Y-63919789D01*
X129665222Y-63754000D01*
X139658928Y-63754000D01*
X139778062Y-64352927D01*
X140117327Y-64860673D01*
X140625073Y-65199938D01*
X141072818Y-65289000D01*
X141375182Y-65289000D01*
X141822927Y-65199938D01*
X142330673Y-64860673D01*
X142669938Y-64352927D01*
X142789072Y-63754000D01*
X142669938Y-63155073D01*
X142330673Y-62647327D01*
X141822927Y-62308062D01*
X141375182Y-62219000D01*
X141072818Y-62219000D01*
X140625073Y-62308062D01*
X140117327Y-62647327D01*
X139778062Y-63155073D01*
X139658928Y-63754000D01*
X129665222Y-63754000D01*
X129648916Y-63672024D01*
X129508568Y-63461980D01*
X129298524Y-63321632D01*
X129195051Y-63301050D01*
X129472404Y-62996713D01*
X129642235Y-62586679D01*
X129520914Y-62356789D01*
X128327759Y-62356789D01*
X128327759Y-62376789D01*
X128073759Y-62376789D01*
X128073759Y-62356789D01*
X126880604Y-62356789D01*
X126759283Y-62586679D01*
X126929114Y-62996713D01*
X127206467Y-63301050D01*
X127102994Y-63321632D01*
X126892950Y-63461980D01*
X126752602Y-63672024D01*
X126703319Y-63919789D01*
X116407446Y-63919789D01*
X117152707Y-63174529D01*
X117226933Y-63124933D01*
X117312607Y-62996713D01*
X117423419Y-62830871D01*
X117492416Y-62484000D01*
X117475000Y-62396444D01*
X117475000Y-61872899D01*
X126759283Y-61872899D01*
X126880604Y-62102789D01*
X128073759Y-62102789D01*
X128073759Y-60908970D01*
X128327759Y-60908970D01*
X128327759Y-62102789D01*
X129520914Y-62102789D01*
X129642235Y-61872899D01*
X129472404Y-61462865D01*
X129082117Y-61034606D01*
X128557651Y-60788303D01*
X128327759Y-60908970D01*
X128073759Y-60908970D01*
X127843867Y-60788303D01*
X127319401Y-61034606D01*
X126929114Y-61462865D01*
X126759283Y-61872899D01*
X117475000Y-61872899D01*
X117475000Y-58547000D01*
X142905445Y-58547000D01*
X142993000Y-58564416D01*
X143080555Y-58547000D01*
X143080556Y-58547000D01*
X143339870Y-58495419D01*
X143633933Y-58298933D01*
X143683531Y-58224704D01*
X144685759Y-57222477D01*
X144900000Y-57265092D01*
X145479417Y-57149839D01*
X145970625Y-56821625D01*
X146150000Y-56553171D01*
X146329375Y-56821625D01*
X146820582Y-57149839D01*
X147400000Y-57265092D01*
X147979417Y-57149839D01*
X148470625Y-56821625D01*
X148650000Y-56553171D01*
X148829375Y-56821625D01*
X149320582Y-57149839D01*
X149900000Y-57265092D01*
X150479417Y-57149839D01*
X150970625Y-56821625D01*
X151013242Y-56757844D01*
X151165414Y-56985586D01*
X151456565Y-57180126D01*
X151511001Y-57190954D01*
X151511001Y-57277000D01*
X150455556Y-57277000D01*
X150368000Y-57259584D01*
X150021129Y-57328581D01*
X149822783Y-57461112D01*
X149727067Y-57525067D01*
X149677471Y-57599293D01*
X139895294Y-67381471D01*
X139821068Y-67431067D01*
X139771472Y-67505293D01*
X139771471Y-67505294D01*
X139624582Y-67725130D01*
X139555584Y-68072000D01*
X139573001Y-68159559D01*
X139573000Y-73482650D01*
X139427000Y-73835126D01*
X139427000Y-74246874D01*
X139584569Y-74627280D01*
X139875720Y-74918431D01*
X140256126Y-75076000D01*
X140667874Y-75076000D01*
X141048280Y-74918431D01*
X141339431Y-74627280D01*
X141497000Y-74246874D01*
X141497000Y-73835126D01*
X141351000Y-73482650D01*
X141351000Y-70660126D01*
X148571000Y-70660126D01*
X148571000Y-71071874D01*
X148728569Y-71452280D01*
X149019720Y-71743431D01*
X149400126Y-71901000D01*
X149428693Y-71901000D01*
X149513130Y-71957419D01*
X149772444Y-72009000D01*
X149772448Y-72009000D01*
X149859999Y-72026415D01*
X149947550Y-72009000D01*
X151457059Y-72009000D01*
X151357343Y-72158235D01*
X151308060Y-72406000D01*
X151308060Y-74406000D01*
X151357343Y-74653765D01*
X151497691Y-74863809D01*
X151707735Y-75004157D01*
X151955500Y-75053440D01*
X153860500Y-75053440D01*
X154108265Y-75004157D01*
X154318309Y-74863809D01*
X154455255Y-74658857D01*
X154581076Y-74781973D01*
X155075020Y-74996563D01*
X155321000Y-74876594D01*
X155321000Y-73533000D01*
X155301000Y-73533000D01*
X155301000Y-73279000D01*
X155321000Y-73279000D01*
X155321000Y-73259000D01*
X155575000Y-73259000D01*
X155575000Y-73279000D01*
X155595000Y-73279000D01*
X155595000Y-73533000D01*
X155575000Y-73533000D01*
X155575000Y-74876594D01*
X155820980Y-74996563D01*
X156314924Y-74781973D01*
X156708841Y-74396526D01*
X156843477Y-74598023D01*
X157368590Y-74948891D01*
X157988000Y-75072100D01*
X158607411Y-74948891D01*
X159132523Y-74598023D01*
X159483391Y-74072910D01*
X159575500Y-73609849D01*
X159575500Y-73202150D01*
X159483391Y-72739089D01*
X159132523Y-72213977D01*
X158607410Y-71863109D01*
X157988000Y-71739900D01*
X157686590Y-71799854D01*
X156440031Y-70553296D01*
X156390433Y-70479067D01*
X156096370Y-70282581D01*
X155837056Y-70231000D01*
X155837055Y-70231000D01*
X155749500Y-70213584D01*
X155661945Y-70231000D01*
X150434711Y-70231000D01*
X150192280Y-69988569D01*
X149811874Y-69831000D01*
X149400126Y-69831000D01*
X149019720Y-69988569D01*
X148728569Y-70279720D01*
X148571000Y-70660126D01*
X141351000Y-70660126D01*
X141351000Y-68440235D01*
X146937235Y-62854000D01*
X147296560Y-62854000D01*
X147296560Y-64654000D01*
X147345843Y-64901765D01*
X147486191Y-65111809D01*
X147696235Y-65252157D01*
X147944000Y-65301440D01*
X149744000Y-65301440D01*
X149991765Y-65252157D01*
X150201809Y-65111809D01*
X150342157Y-64901765D01*
X150391440Y-64654000D01*
X150391440Y-62854000D01*
X150342157Y-62606235D01*
X150201809Y-62396191D01*
X149991765Y-62255843D01*
X149744000Y-62206560D01*
X147944000Y-62206560D01*
X147696235Y-62255843D01*
X147486191Y-62396191D01*
X147345843Y-62606235D01*
X147296560Y-62854000D01*
X146937235Y-62854000D01*
X150736236Y-59055000D01*
X152031765Y-59055000D01*
X164584570Y-71607806D01*
X164730569Y-71960280D01*
X165021720Y-72251431D01*
X165402126Y-72409000D01*
X165813874Y-72409000D01*
X166194280Y-72251431D01*
X166485431Y-71960280D01*
X166643000Y-71579874D01*
X166643000Y-71168126D01*
X166485431Y-70787720D01*
X166357837Y-70660126D01*
X177781000Y-70660126D01*
X177781000Y-71071874D01*
X177938569Y-71452280D01*
X178229720Y-71743431D01*
X178610126Y-71901000D01*
X179000317Y-71901000D01*
X178929691Y-71948191D01*
X178789343Y-72158235D01*
X178740060Y-72406000D01*
X178740060Y-74406000D01*
X178789343Y-74653765D01*
X178929691Y-74863809D01*
X179139735Y-75004157D01*
X179387500Y-75053440D01*
X181292500Y-75053440D01*
X181540265Y-75004157D01*
X181750309Y-74863809D01*
X181887255Y-74658857D01*
X182013076Y-74781973D01*
X182507020Y-74996563D01*
X182753000Y-74876594D01*
X182753000Y-73533000D01*
X182733000Y-73533000D01*
X182733000Y-73279000D01*
X182753000Y-73279000D01*
X182753000Y-73259000D01*
X183007000Y-73259000D01*
X183007000Y-73279000D01*
X183027000Y-73279000D01*
X183027000Y-73533000D01*
X183007000Y-73533000D01*
X183007000Y-74876594D01*
X183252980Y-74996563D01*
X183746924Y-74781973D01*
X184140841Y-74396526D01*
X184275477Y-74598023D01*
X184800590Y-74948891D01*
X185420000Y-75072100D01*
X186039411Y-74948891D01*
X186564523Y-74598023D01*
X186915391Y-74072910D01*
X187007500Y-73609849D01*
X187007500Y-73202150D01*
X186915391Y-72739089D01*
X186564523Y-72213977D01*
X186039410Y-71863109D01*
X185420000Y-71739900D01*
X185118590Y-71799854D01*
X184531000Y-71212265D01*
X184531000Y-70953556D01*
X184548416Y-70866000D01*
X184479419Y-70519130D01*
X184282933Y-70225067D01*
X183988870Y-70028581D01*
X183729556Y-69977000D01*
X183642000Y-69959584D01*
X183554444Y-69977000D01*
X179374350Y-69977000D01*
X179021874Y-69831000D01*
X178610126Y-69831000D01*
X178229720Y-69988569D01*
X177938569Y-70279720D01*
X177781000Y-70660126D01*
X166357837Y-70660126D01*
X166194280Y-70496569D01*
X165841806Y-70350570D01*
X153289000Y-57797765D01*
X153289000Y-57190954D01*
X153343435Y-57180126D01*
X153634586Y-56985586D01*
X153829126Y-56694435D01*
X153897440Y-56351000D01*
X153897440Y-54901000D01*
X153829126Y-54557565D01*
X153779303Y-54483000D01*
X154503466Y-54483000D01*
X162853836Y-65289362D01*
X162935067Y-65410933D01*
X163034910Y-65477646D01*
X163125455Y-65556510D01*
X163166616Y-65570327D01*
X163243720Y-65647431D01*
X163624126Y-65805000D01*
X164035874Y-65805000D01*
X164416280Y-65647431D01*
X164707431Y-65356280D01*
X164865000Y-64975874D01*
X164865000Y-64564126D01*
X164707431Y-64183720D01*
X164416280Y-63892569D01*
X164081745Y-63754000D01*
X168868928Y-63754000D01*
X168988062Y-64352927D01*
X169327327Y-64860673D01*
X169835073Y-65199938D01*
X170282818Y-65289000D01*
X170585182Y-65289000D01*
X171032927Y-65199938D01*
X171540673Y-64860673D01*
X171879938Y-64352927D01*
X171999072Y-63754000D01*
X171879938Y-63155073D01*
X171678768Y-62854000D01*
X176506560Y-62854000D01*
X176506560Y-64654000D01*
X176555843Y-64901765D01*
X176696191Y-65111809D01*
X176906235Y-65252157D01*
X177154000Y-65301440D01*
X178954000Y-65301440D01*
X179201765Y-65252157D01*
X179411809Y-65111809D01*
X179552157Y-64901765D01*
X179601440Y-64654000D01*
X179601440Y-62854000D01*
X179552157Y-62606235D01*
X179411809Y-62396191D01*
X179201765Y-62255843D01*
X178954000Y-62206560D01*
X177154000Y-62206560D01*
X176906235Y-62255843D01*
X176696191Y-62396191D01*
X176555843Y-62606235D01*
X176506560Y-62854000D01*
X171678768Y-62854000D01*
X171540673Y-62647327D01*
X171032927Y-62308062D01*
X170585182Y-62219000D01*
X170282818Y-62219000D01*
X169835073Y-62308062D01*
X169327327Y-62647327D01*
X168988062Y-63155073D01*
X168868928Y-63754000D01*
X164081745Y-63754000D01*
X164035874Y-63735000D01*
X163899716Y-63735000D01*
X155936452Y-53429600D01*
X188892943Y-53429600D01*
X188892943Y-57249600D01*
X194748657Y-57249600D01*
X194748657Y-53429600D01*
X188892943Y-53429600D01*
X155936452Y-53429600D01*
X155662170Y-53074647D01*
X155580933Y-52953067D01*
X155481086Y-52886351D01*
X155390544Y-52807490D01*
X155335315Y-52788951D01*
X155286870Y-52756581D01*
X155169094Y-52733154D01*
X155055263Y-52694943D01*
X154909407Y-52705000D01*
X143157469Y-52705000D01*
X143069918Y-52687585D01*
X142982367Y-52705000D01*
X142982363Y-52705000D01*
X142723049Y-52756581D01*
X142428986Y-52953067D01*
X142379389Y-53027294D01*
X141927294Y-53479390D01*
X141853068Y-53528986D01*
X141803472Y-53603212D01*
X141803471Y-53603213D01*
X141656582Y-53823049D01*
X141587584Y-54169919D01*
X141603022Y-54247530D01*
X141329375Y-54430375D01*
X141150000Y-54698829D01*
X140970625Y-54430375D01*
X140479418Y-54102161D01*
X139900000Y-53986908D01*
X139320583Y-54102161D01*
X138829375Y-54430375D01*
X138650000Y-54698829D01*
X138470625Y-54430375D01*
X137979418Y-54102161D01*
X137400000Y-53986908D01*
X136820583Y-54102161D01*
X136329375Y-54430375D01*
X136124495Y-54737000D01*
X126374897Y-54737000D01*
X126370933Y-54731067D01*
X126076870Y-54534581D01*
X125817556Y-54483000D01*
X125817555Y-54483000D01*
X125730000Y-54465584D01*
X125642445Y-54483000D01*
X117435555Y-54483000D01*
X117348000Y-54465584D01*
X117260445Y-54483000D01*
X117260444Y-54483000D01*
X117001130Y-54534581D01*
X116707067Y-54731067D01*
X116657471Y-54805293D01*
X106819765Y-64643000D01*
X105828168Y-64643000D01*
X106262673Y-64352673D01*
X106601938Y-63844927D01*
X106721072Y-63246000D01*
X106601938Y-62647073D01*
X106262673Y-62139327D01*
X105754927Y-61800062D01*
X105307182Y-61711000D01*
X105004818Y-61711000D01*
X104557073Y-61800062D01*
X104049327Y-62139327D01*
X103710062Y-62647073D01*
X103590928Y-63246000D01*
X103710062Y-63844927D01*
X104049327Y-64352673D01*
X104483832Y-64643000D01*
X102920350Y-64643000D01*
X102567874Y-64497000D01*
X102156126Y-64497000D01*
X101775720Y-64654569D01*
X101484569Y-64945720D01*
X101327000Y-65326126D01*
X94690000Y-65326126D01*
X94690000Y-50240000D01*
X199950001Y-50240000D01*
X199950000Y-52000074D01*
G04 #@! TD*
M02*
