M48
;DRILL file {KiCad (5.0.1)-4} date 5/22/2019 1:15:03 PM
;FORMAT={2:4/ absolute / inch / suppress trailing zeros}
FMAT,2
INCH,LZ
T1C0.0394
%
G90
G05
M72
T1
X063Y-0185
X063Y-0195
X063Y-0205
X063Y-0215
X063Y-0225
X063Y-0235
X063Y-0245
X063Y-0255
X063Y-0265
X063Y-0275
X063Y-0285
X063Y-0295
X063Y-0305
X063Y-0315
X063Y-0325
X063Y-0335
X063Y-0345
X063Y-0355
X063Y-0365
X063Y-0375
X063Y-0385
X063Y-0395
X063Y-0405
X063Y-0415
X063Y-0425
X063Y-0435
X063Y-0445
X063Y-0455
X063Y-0465
X063Y-0475
X063Y-0485
X063Y-0495
X0534Y-0185
X0534Y-0195
X0534Y-0205
X0534Y-0215
X0534Y-0225
X0534Y-0235
X0534Y-0245
X0534Y-0255
X0534Y-0265
X0534Y-0275
X0534Y-0285
X0534Y-0295
X0534Y-0305
X0534Y-0315
X0534Y-0325
X0534Y-0335
X0534Y-0345
X0534Y-0355
X0534Y-0365
X0534Y-0375
X0534Y-0385
X0534Y-0395
X0534Y-0405
X0534Y-0415
X0534Y-0425
X0534Y-0435
X0534Y-0445
X0534Y-0455
X0534Y-0465
X0534Y-0475
X0534Y-0485
X0534Y-0495
T0
M30
