G04 #@! TF.GenerationSoftware,KiCad,Pcbnew,(6.0.0-rc1-dev-305-gf0b8b21)*
G04 #@! TF.CreationDate,2019-05-22T14:27:23-07:00*
G04 #@! TF.ProjectId,DRONE_GateDriver,44524F4E455F47617465447269766572,rev?*
G04 #@! TF.SameCoordinates,Original*
G04 #@! TF.FileFunction,Copper,L1,Top,Signal*
G04 #@! TF.FilePolarity,Positive*
%FSLAX46Y46*%
G04 Gerber Fmt 4.6, Leading zero omitted, Abs format (unit mm)*
G04 Created by KiCad (PCBNEW (6.0.0-rc1-dev-305-gf0b8b21)) date Wednesday, May 22, 2019 at 02:27:23 PM*
%MOMM*%
%LPD*%
G01*
G04 APERTURE LIST*
G04 #@! TA.AperFunction,Conductor*
%ADD10C,0.100000*%
G04 #@! TD*
G04 #@! TA.AperFunction,SMDPad,CuDef*
%ADD11C,0.975000*%
G04 #@! TD*
G04 #@! TA.AperFunction,ComponentPad*
%ADD12R,2.200000X2.200000*%
G04 #@! TD*
G04 #@! TA.AperFunction,ComponentPad*
%ADD13O,2.200000X2.200000*%
G04 #@! TD*
G04 #@! TA.AperFunction,ComponentPad*
%ADD14R,1.500000X1.500000*%
G04 #@! TD*
G04 #@! TA.AperFunction,ComponentPad*
%ADD15C,1.500000*%
G04 #@! TD*
G04 #@! TA.AperFunction,ComponentPad*
%ADD16R,1.498600X1.498600*%
G04 #@! TD*
G04 #@! TA.AperFunction,SMDPad,CuDef*
%ADD17R,1.550000X0.600000*%
G04 #@! TD*
G04 #@! TA.AperFunction,ViaPad*
%ADD18C,0.800000*%
G04 #@! TD*
G04 #@! TA.AperFunction,Conductor*
%ADD19C,0.250000*%
G04 #@! TD*
G04 #@! TA.AperFunction,Conductor*
%ADD20C,0.254000*%
G04 #@! TD*
G04 APERTURE END LIST*
D10*
G04 #@! TO.N,Net-(C1-Pad1)*
G04 #@! TO.C,C1*
G36*
X159002642Y-110201174D02*
X159026303Y-110204684D01*
X159049507Y-110210496D01*
X159072029Y-110218554D01*
X159093653Y-110228782D01*
X159114170Y-110241079D01*
X159133383Y-110255329D01*
X159151107Y-110271393D01*
X159167171Y-110289117D01*
X159181421Y-110308330D01*
X159193718Y-110328847D01*
X159203946Y-110350471D01*
X159212004Y-110372993D01*
X159217816Y-110396197D01*
X159221326Y-110419858D01*
X159222500Y-110443750D01*
X159222500Y-111356250D01*
X159221326Y-111380142D01*
X159217816Y-111403803D01*
X159212004Y-111427007D01*
X159203946Y-111449529D01*
X159193718Y-111471153D01*
X159181421Y-111491670D01*
X159167171Y-111510883D01*
X159151107Y-111528607D01*
X159133383Y-111544671D01*
X159114170Y-111558921D01*
X159093653Y-111571218D01*
X159072029Y-111581446D01*
X159049507Y-111589504D01*
X159026303Y-111595316D01*
X159002642Y-111598826D01*
X158978750Y-111600000D01*
X158491250Y-111600000D01*
X158467358Y-111598826D01*
X158443697Y-111595316D01*
X158420493Y-111589504D01*
X158397971Y-111581446D01*
X158376347Y-111571218D01*
X158355830Y-111558921D01*
X158336617Y-111544671D01*
X158318893Y-111528607D01*
X158302829Y-111510883D01*
X158288579Y-111491670D01*
X158276282Y-111471153D01*
X158266054Y-111449529D01*
X158257996Y-111427007D01*
X158252184Y-111403803D01*
X158248674Y-111380142D01*
X158247500Y-111356250D01*
X158247500Y-110443750D01*
X158248674Y-110419858D01*
X158252184Y-110396197D01*
X158257996Y-110372993D01*
X158266054Y-110350471D01*
X158276282Y-110328847D01*
X158288579Y-110308330D01*
X158302829Y-110289117D01*
X158318893Y-110271393D01*
X158336617Y-110255329D01*
X158355830Y-110241079D01*
X158376347Y-110228782D01*
X158397971Y-110218554D01*
X158420493Y-110210496D01*
X158443697Y-110204684D01*
X158467358Y-110201174D01*
X158491250Y-110200000D01*
X158978750Y-110200000D01*
X159002642Y-110201174D01*
X159002642Y-110201174D01*
G37*
D11*
G04 #@! TD*
G04 #@! TO.P,C1,1*
G04 #@! TO.N,Net-(C1-Pad1)*
X158735000Y-110900000D03*
D10*
G04 #@! TO.N,GND*
G04 #@! TO.C,C1*
G36*
X160877642Y-110201174D02*
X160901303Y-110204684D01*
X160924507Y-110210496D01*
X160947029Y-110218554D01*
X160968653Y-110228782D01*
X160989170Y-110241079D01*
X161008383Y-110255329D01*
X161026107Y-110271393D01*
X161042171Y-110289117D01*
X161056421Y-110308330D01*
X161068718Y-110328847D01*
X161078946Y-110350471D01*
X161087004Y-110372993D01*
X161092816Y-110396197D01*
X161096326Y-110419858D01*
X161097500Y-110443750D01*
X161097500Y-111356250D01*
X161096326Y-111380142D01*
X161092816Y-111403803D01*
X161087004Y-111427007D01*
X161078946Y-111449529D01*
X161068718Y-111471153D01*
X161056421Y-111491670D01*
X161042171Y-111510883D01*
X161026107Y-111528607D01*
X161008383Y-111544671D01*
X160989170Y-111558921D01*
X160968653Y-111571218D01*
X160947029Y-111581446D01*
X160924507Y-111589504D01*
X160901303Y-111595316D01*
X160877642Y-111598826D01*
X160853750Y-111600000D01*
X160366250Y-111600000D01*
X160342358Y-111598826D01*
X160318697Y-111595316D01*
X160295493Y-111589504D01*
X160272971Y-111581446D01*
X160251347Y-111571218D01*
X160230830Y-111558921D01*
X160211617Y-111544671D01*
X160193893Y-111528607D01*
X160177829Y-111510883D01*
X160163579Y-111491670D01*
X160151282Y-111471153D01*
X160141054Y-111449529D01*
X160132996Y-111427007D01*
X160127184Y-111403803D01*
X160123674Y-111380142D01*
X160122500Y-111356250D01*
X160122500Y-110443750D01*
X160123674Y-110419858D01*
X160127184Y-110396197D01*
X160132996Y-110372993D01*
X160141054Y-110350471D01*
X160151282Y-110328847D01*
X160163579Y-110308330D01*
X160177829Y-110289117D01*
X160193893Y-110271393D01*
X160211617Y-110255329D01*
X160230830Y-110241079D01*
X160251347Y-110228782D01*
X160272971Y-110218554D01*
X160295493Y-110210496D01*
X160318697Y-110204684D01*
X160342358Y-110201174D01*
X160366250Y-110200000D01*
X160853750Y-110200000D01*
X160877642Y-110201174D01*
X160877642Y-110201174D01*
G37*
D11*
G04 #@! TD*
G04 #@! TO.P,C1,2*
G04 #@! TO.N,GND*
X160610000Y-110900000D03*
D10*
G04 #@! TO.N,Net-(C2-Pad2)*
G04 #@! TO.C,C2*
G36*
X142860142Y-106148674D02*
X142883803Y-106152184D01*
X142907007Y-106157996D01*
X142929529Y-106166054D01*
X142951153Y-106176282D01*
X142971670Y-106188579D01*
X142990883Y-106202829D01*
X143008607Y-106218893D01*
X143024671Y-106236617D01*
X143038921Y-106255830D01*
X143051218Y-106276347D01*
X143061446Y-106297971D01*
X143069504Y-106320493D01*
X143075316Y-106343697D01*
X143078826Y-106367358D01*
X143080000Y-106391250D01*
X143080000Y-106878750D01*
X143078826Y-106902642D01*
X143075316Y-106926303D01*
X143069504Y-106949507D01*
X143061446Y-106972029D01*
X143051218Y-106993653D01*
X143038921Y-107014170D01*
X143024671Y-107033383D01*
X143008607Y-107051107D01*
X142990883Y-107067171D01*
X142971670Y-107081421D01*
X142951153Y-107093718D01*
X142929529Y-107103946D01*
X142907007Y-107112004D01*
X142883803Y-107117816D01*
X142860142Y-107121326D01*
X142836250Y-107122500D01*
X141923750Y-107122500D01*
X141899858Y-107121326D01*
X141876197Y-107117816D01*
X141852993Y-107112004D01*
X141830471Y-107103946D01*
X141808847Y-107093718D01*
X141788330Y-107081421D01*
X141769117Y-107067171D01*
X141751393Y-107051107D01*
X141735329Y-107033383D01*
X141721079Y-107014170D01*
X141708782Y-106993653D01*
X141698554Y-106972029D01*
X141690496Y-106949507D01*
X141684684Y-106926303D01*
X141681174Y-106902642D01*
X141680000Y-106878750D01*
X141680000Y-106391250D01*
X141681174Y-106367358D01*
X141684684Y-106343697D01*
X141690496Y-106320493D01*
X141698554Y-106297971D01*
X141708782Y-106276347D01*
X141721079Y-106255830D01*
X141735329Y-106236617D01*
X141751393Y-106218893D01*
X141769117Y-106202829D01*
X141788330Y-106188579D01*
X141808847Y-106176282D01*
X141830471Y-106166054D01*
X141852993Y-106157996D01*
X141876197Y-106152184D01*
X141899858Y-106148674D01*
X141923750Y-106147500D01*
X142836250Y-106147500D01*
X142860142Y-106148674D01*
X142860142Y-106148674D01*
G37*
D11*
G04 #@! TD*
G04 #@! TO.P,C2,2*
G04 #@! TO.N,Net-(C2-Pad2)*
X142380000Y-106635000D03*
D10*
G04 #@! TO.N,Net-(C2-Pad1)*
G04 #@! TO.C,C2*
G36*
X142860142Y-104273674D02*
X142883803Y-104277184D01*
X142907007Y-104282996D01*
X142929529Y-104291054D01*
X142951153Y-104301282D01*
X142971670Y-104313579D01*
X142990883Y-104327829D01*
X143008607Y-104343893D01*
X143024671Y-104361617D01*
X143038921Y-104380830D01*
X143051218Y-104401347D01*
X143061446Y-104422971D01*
X143069504Y-104445493D01*
X143075316Y-104468697D01*
X143078826Y-104492358D01*
X143080000Y-104516250D01*
X143080000Y-105003750D01*
X143078826Y-105027642D01*
X143075316Y-105051303D01*
X143069504Y-105074507D01*
X143061446Y-105097029D01*
X143051218Y-105118653D01*
X143038921Y-105139170D01*
X143024671Y-105158383D01*
X143008607Y-105176107D01*
X142990883Y-105192171D01*
X142971670Y-105206421D01*
X142951153Y-105218718D01*
X142929529Y-105228946D01*
X142907007Y-105237004D01*
X142883803Y-105242816D01*
X142860142Y-105246326D01*
X142836250Y-105247500D01*
X141923750Y-105247500D01*
X141899858Y-105246326D01*
X141876197Y-105242816D01*
X141852993Y-105237004D01*
X141830471Y-105228946D01*
X141808847Y-105218718D01*
X141788330Y-105206421D01*
X141769117Y-105192171D01*
X141751393Y-105176107D01*
X141735329Y-105158383D01*
X141721079Y-105139170D01*
X141708782Y-105118653D01*
X141698554Y-105097029D01*
X141690496Y-105074507D01*
X141684684Y-105051303D01*
X141681174Y-105027642D01*
X141680000Y-105003750D01*
X141680000Y-104516250D01*
X141681174Y-104492358D01*
X141684684Y-104468697D01*
X141690496Y-104445493D01*
X141698554Y-104422971D01*
X141708782Y-104401347D01*
X141721079Y-104380830D01*
X141735329Y-104361617D01*
X141751393Y-104343893D01*
X141769117Y-104327829D01*
X141788330Y-104313579D01*
X141808847Y-104301282D01*
X141830471Y-104291054D01*
X141852993Y-104282996D01*
X141876197Y-104277184D01*
X141899858Y-104273674D01*
X141923750Y-104272500D01*
X142836250Y-104272500D01*
X142860142Y-104273674D01*
X142860142Y-104273674D01*
G37*
D11*
G04 #@! TD*
G04 #@! TO.P,C2,1*
G04 #@! TO.N,Net-(C2-Pad1)*
X142380000Y-104760000D03*
D10*
G04 #@! TO.N,Net-(C3-Pad1)*
G04 #@! TO.C,C3*
G36*
X136957642Y-112761174D02*
X136981303Y-112764684D01*
X137004507Y-112770496D01*
X137027029Y-112778554D01*
X137048653Y-112788782D01*
X137069170Y-112801079D01*
X137088383Y-112815329D01*
X137106107Y-112831393D01*
X137122171Y-112849117D01*
X137136421Y-112868330D01*
X137148718Y-112888847D01*
X137158946Y-112910471D01*
X137167004Y-112932993D01*
X137172816Y-112956197D01*
X137176326Y-112979858D01*
X137177500Y-113003750D01*
X137177500Y-113916250D01*
X137176326Y-113940142D01*
X137172816Y-113963803D01*
X137167004Y-113987007D01*
X137158946Y-114009529D01*
X137148718Y-114031153D01*
X137136421Y-114051670D01*
X137122171Y-114070883D01*
X137106107Y-114088607D01*
X137088383Y-114104671D01*
X137069170Y-114118921D01*
X137048653Y-114131218D01*
X137027029Y-114141446D01*
X137004507Y-114149504D01*
X136981303Y-114155316D01*
X136957642Y-114158826D01*
X136933750Y-114160000D01*
X136446250Y-114160000D01*
X136422358Y-114158826D01*
X136398697Y-114155316D01*
X136375493Y-114149504D01*
X136352971Y-114141446D01*
X136331347Y-114131218D01*
X136310830Y-114118921D01*
X136291617Y-114104671D01*
X136273893Y-114088607D01*
X136257829Y-114070883D01*
X136243579Y-114051670D01*
X136231282Y-114031153D01*
X136221054Y-114009529D01*
X136212996Y-113987007D01*
X136207184Y-113963803D01*
X136203674Y-113940142D01*
X136202500Y-113916250D01*
X136202500Y-113003750D01*
X136203674Y-112979858D01*
X136207184Y-112956197D01*
X136212996Y-112932993D01*
X136221054Y-112910471D01*
X136231282Y-112888847D01*
X136243579Y-112868330D01*
X136257829Y-112849117D01*
X136273893Y-112831393D01*
X136291617Y-112815329D01*
X136310830Y-112801079D01*
X136331347Y-112788782D01*
X136352971Y-112778554D01*
X136375493Y-112770496D01*
X136398697Y-112764684D01*
X136422358Y-112761174D01*
X136446250Y-112760000D01*
X136933750Y-112760000D01*
X136957642Y-112761174D01*
X136957642Y-112761174D01*
G37*
D11*
G04 #@! TD*
G04 #@! TO.P,C3,1*
G04 #@! TO.N,Net-(C3-Pad1)*
X136690000Y-113460000D03*
D10*
G04 #@! TO.N,GND*
G04 #@! TO.C,C3*
G36*
X135082642Y-112761174D02*
X135106303Y-112764684D01*
X135129507Y-112770496D01*
X135152029Y-112778554D01*
X135173653Y-112788782D01*
X135194170Y-112801079D01*
X135213383Y-112815329D01*
X135231107Y-112831393D01*
X135247171Y-112849117D01*
X135261421Y-112868330D01*
X135273718Y-112888847D01*
X135283946Y-112910471D01*
X135292004Y-112932993D01*
X135297816Y-112956197D01*
X135301326Y-112979858D01*
X135302500Y-113003750D01*
X135302500Y-113916250D01*
X135301326Y-113940142D01*
X135297816Y-113963803D01*
X135292004Y-113987007D01*
X135283946Y-114009529D01*
X135273718Y-114031153D01*
X135261421Y-114051670D01*
X135247171Y-114070883D01*
X135231107Y-114088607D01*
X135213383Y-114104671D01*
X135194170Y-114118921D01*
X135173653Y-114131218D01*
X135152029Y-114141446D01*
X135129507Y-114149504D01*
X135106303Y-114155316D01*
X135082642Y-114158826D01*
X135058750Y-114160000D01*
X134571250Y-114160000D01*
X134547358Y-114158826D01*
X134523697Y-114155316D01*
X134500493Y-114149504D01*
X134477971Y-114141446D01*
X134456347Y-114131218D01*
X134435830Y-114118921D01*
X134416617Y-114104671D01*
X134398893Y-114088607D01*
X134382829Y-114070883D01*
X134368579Y-114051670D01*
X134356282Y-114031153D01*
X134346054Y-114009529D01*
X134337996Y-113987007D01*
X134332184Y-113963803D01*
X134328674Y-113940142D01*
X134327500Y-113916250D01*
X134327500Y-113003750D01*
X134328674Y-112979858D01*
X134332184Y-112956197D01*
X134337996Y-112932993D01*
X134346054Y-112910471D01*
X134356282Y-112888847D01*
X134368579Y-112868330D01*
X134382829Y-112849117D01*
X134398893Y-112831393D01*
X134416617Y-112815329D01*
X134435830Y-112801079D01*
X134456347Y-112788782D01*
X134477971Y-112778554D01*
X134500493Y-112770496D01*
X134523697Y-112764684D01*
X134547358Y-112761174D01*
X134571250Y-112760000D01*
X135058750Y-112760000D01*
X135082642Y-112761174D01*
X135082642Y-112761174D01*
G37*
D11*
G04 #@! TD*
G04 #@! TO.P,C3,2*
G04 #@! TO.N,GND*
X134815000Y-113460000D03*
D10*
G04 #@! TO.N,GND*
G04 #@! TO.C,C4*
G36*
X130630142Y-110758674D02*
X130653803Y-110762184D01*
X130677007Y-110767996D01*
X130699529Y-110776054D01*
X130721153Y-110786282D01*
X130741670Y-110798579D01*
X130760883Y-110812829D01*
X130778607Y-110828893D01*
X130794671Y-110846617D01*
X130808921Y-110865830D01*
X130821218Y-110886347D01*
X130831446Y-110907971D01*
X130839504Y-110930493D01*
X130845316Y-110953697D01*
X130848826Y-110977358D01*
X130850000Y-111001250D01*
X130850000Y-111488750D01*
X130848826Y-111512642D01*
X130845316Y-111536303D01*
X130839504Y-111559507D01*
X130831446Y-111582029D01*
X130821218Y-111603653D01*
X130808921Y-111624170D01*
X130794671Y-111643383D01*
X130778607Y-111661107D01*
X130760883Y-111677171D01*
X130741670Y-111691421D01*
X130721153Y-111703718D01*
X130699529Y-111713946D01*
X130677007Y-111722004D01*
X130653803Y-111727816D01*
X130630142Y-111731326D01*
X130606250Y-111732500D01*
X129693750Y-111732500D01*
X129669858Y-111731326D01*
X129646197Y-111727816D01*
X129622993Y-111722004D01*
X129600471Y-111713946D01*
X129578847Y-111703718D01*
X129558330Y-111691421D01*
X129539117Y-111677171D01*
X129521393Y-111661107D01*
X129505329Y-111643383D01*
X129491079Y-111624170D01*
X129478782Y-111603653D01*
X129468554Y-111582029D01*
X129460496Y-111559507D01*
X129454684Y-111536303D01*
X129451174Y-111512642D01*
X129450000Y-111488750D01*
X129450000Y-111001250D01*
X129451174Y-110977358D01*
X129454684Y-110953697D01*
X129460496Y-110930493D01*
X129468554Y-110907971D01*
X129478782Y-110886347D01*
X129491079Y-110865830D01*
X129505329Y-110846617D01*
X129521393Y-110828893D01*
X129539117Y-110812829D01*
X129558330Y-110798579D01*
X129578847Y-110786282D01*
X129600471Y-110776054D01*
X129622993Y-110767996D01*
X129646197Y-110762184D01*
X129669858Y-110758674D01*
X129693750Y-110757500D01*
X130606250Y-110757500D01*
X130630142Y-110758674D01*
X130630142Y-110758674D01*
G37*
D11*
G04 #@! TD*
G04 #@! TO.P,C4,2*
G04 #@! TO.N,GND*
X130150000Y-111245000D03*
D10*
G04 #@! TO.N,Net-(C4-Pad1)*
G04 #@! TO.C,C4*
G36*
X130630142Y-108883674D02*
X130653803Y-108887184D01*
X130677007Y-108892996D01*
X130699529Y-108901054D01*
X130721153Y-108911282D01*
X130741670Y-108923579D01*
X130760883Y-108937829D01*
X130778607Y-108953893D01*
X130794671Y-108971617D01*
X130808921Y-108990830D01*
X130821218Y-109011347D01*
X130831446Y-109032971D01*
X130839504Y-109055493D01*
X130845316Y-109078697D01*
X130848826Y-109102358D01*
X130850000Y-109126250D01*
X130850000Y-109613750D01*
X130848826Y-109637642D01*
X130845316Y-109661303D01*
X130839504Y-109684507D01*
X130831446Y-109707029D01*
X130821218Y-109728653D01*
X130808921Y-109749170D01*
X130794671Y-109768383D01*
X130778607Y-109786107D01*
X130760883Y-109802171D01*
X130741670Y-109816421D01*
X130721153Y-109828718D01*
X130699529Y-109838946D01*
X130677007Y-109847004D01*
X130653803Y-109852816D01*
X130630142Y-109856326D01*
X130606250Y-109857500D01*
X129693750Y-109857500D01*
X129669858Y-109856326D01*
X129646197Y-109852816D01*
X129622993Y-109847004D01*
X129600471Y-109838946D01*
X129578847Y-109828718D01*
X129558330Y-109816421D01*
X129539117Y-109802171D01*
X129521393Y-109786107D01*
X129505329Y-109768383D01*
X129491079Y-109749170D01*
X129478782Y-109728653D01*
X129468554Y-109707029D01*
X129460496Y-109684507D01*
X129454684Y-109661303D01*
X129451174Y-109637642D01*
X129450000Y-109613750D01*
X129450000Y-109126250D01*
X129451174Y-109102358D01*
X129454684Y-109078697D01*
X129460496Y-109055493D01*
X129468554Y-109032971D01*
X129478782Y-109011347D01*
X129491079Y-108990830D01*
X129505329Y-108971617D01*
X129521393Y-108953893D01*
X129539117Y-108937829D01*
X129558330Y-108923579D01*
X129578847Y-108911282D01*
X129600471Y-108901054D01*
X129622993Y-108892996D01*
X129646197Y-108887184D01*
X129669858Y-108883674D01*
X129693750Y-108882500D01*
X130606250Y-108882500D01*
X130630142Y-108883674D01*
X130630142Y-108883674D01*
G37*
D11*
G04 #@! TD*
G04 #@! TO.P,C4,1*
G04 #@! TO.N,Net-(C4-Pad1)*
X130150000Y-109370000D03*
D12*
G04 #@! TO.P,D1,1*
G04 #@! TO.N,Net-(C2-Pad2)*
X144920000Y-116810000D03*
D13*
G04 #@! TO.P,D1,2*
G04 #@! TO.N,Net-(C1-Pad1)*
X155080000Y-116810000D03*
G04 #@! TD*
D14*
G04 #@! TO.P,J1,2*
G04 #@! TO.N,Net-(J1-Pad2)*
X164760000Y-107120000D03*
D15*
G04 #@! TO.P,J1,1*
G04 #@! TO.N,GND*
X164760000Y-109660000D03*
G04 #@! TD*
D16*
G04 #@! TO.P,J2,1*
G04 #@! TO.N,Net-(J2-Pad1)*
X153480000Y-111830000D03*
G04 #@! TD*
G04 #@! TO.P,J3,1*
G04 #@! TO.N,Net-(J3-Pad1)*
X148160000Y-111690000D03*
G04 #@! TD*
D15*
G04 #@! TO.P,J4,1*
G04 #@! TO.N,GND*
X134000000Y-117550000D03*
D14*
G04 #@! TO.P,J4,2*
G04 #@! TO.N,Net-(C3-Pad1)*
X136540000Y-117550000D03*
G04 #@! TD*
G04 #@! TO.P,J5,1*
G04 #@! TO.N,Net-(C4-Pad1)*
X126880000Y-106570000D03*
G04 #@! TD*
D10*
G04 #@! TO.N,Net-(C2-Pad1)*
G04 #@! TO.C,L1*
G36*
X130630142Y-104333674D02*
X130653803Y-104337184D01*
X130677007Y-104342996D01*
X130699529Y-104351054D01*
X130721153Y-104361282D01*
X130741670Y-104373579D01*
X130760883Y-104387829D01*
X130778607Y-104403893D01*
X130794671Y-104421617D01*
X130808921Y-104440830D01*
X130821218Y-104461347D01*
X130831446Y-104482971D01*
X130839504Y-104505493D01*
X130845316Y-104528697D01*
X130848826Y-104552358D01*
X130850000Y-104576250D01*
X130850000Y-105063750D01*
X130848826Y-105087642D01*
X130845316Y-105111303D01*
X130839504Y-105134507D01*
X130831446Y-105157029D01*
X130821218Y-105178653D01*
X130808921Y-105199170D01*
X130794671Y-105218383D01*
X130778607Y-105236107D01*
X130760883Y-105252171D01*
X130741670Y-105266421D01*
X130721153Y-105278718D01*
X130699529Y-105288946D01*
X130677007Y-105297004D01*
X130653803Y-105302816D01*
X130630142Y-105306326D01*
X130606250Y-105307500D01*
X129693750Y-105307500D01*
X129669858Y-105306326D01*
X129646197Y-105302816D01*
X129622993Y-105297004D01*
X129600471Y-105288946D01*
X129578847Y-105278718D01*
X129558330Y-105266421D01*
X129539117Y-105252171D01*
X129521393Y-105236107D01*
X129505329Y-105218383D01*
X129491079Y-105199170D01*
X129478782Y-105178653D01*
X129468554Y-105157029D01*
X129460496Y-105134507D01*
X129454684Y-105111303D01*
X129451174Y-105087642D01*
X129450000Y-105063750D01*
X129450000Y-104576250D01*
X129451174Y-104552358D01*
X129454684Y-104528697D01*
X129460496Y-104505493D01*
X129468554Y-104482971D01*
X129478782Y-104461347D01*
X129491079Y-104440830D01*
X129505329Y-104421617D01*
X129521393Y-104403893D01*
X129539117Y-104387829D01*
X129558330Y-104373579D01*
X129578847Y-104361282D01*
X129600471Y-104351054D01*
X129622993Y-104342996D01*
X129646197Y-104337184D01*
X129669858Y-104333674D01*
X129693750Y-104332500D01*
X130606250Y-104332500D01*
X130630142Y-104333674D01*
X130630142Y-104333674D01*
G37*
D11*
G04 #@! TD*
G04 #@! TO.P,L1,1*
G04 #@! TO.N,Net-(C2-Pad1)*
X130150000Y-104820000D03*
D10*
G04 #@! TO.N,Net-(C4-Pad1)*
G04 #@! TO.C,L1*
G36*
X130630142Y-106208674D02*
X130653803Y-106212184D01*
X130677007Y-106217996D01*
X130699529Y-106226054D01*
X130721153Y-106236282D01*
X130741670Y-106248579D01*
X130760883Y-106262829D01*
X130778607Y-106278893D01*
X130794671Y-106296617D01*
X130808921Y-106315830D01*
X130821218Y-106336347D01*
X130831446Y-106357971D01*
X130839504Y-106380493D01*
X130845316Y-106403697D01*
X130848826Y-106427358D01*
X130850000Y-106451250D01*
X130850000Y-106938750D01*
X130848826Y-106962642D01*
X130845316Y-106986303D01*
X130839504Y-107009507D01*
X130831446Y-107032029D01*
X130821218Y-107053653D01*
X130808921Y-107074170D01*
X130794671Y-107093383D01*
X130778607Y-107111107D01*
X130760883Y-107127171D01*
X130741670Y-107141421D01*
X130721153Y-107153718D01*
X130699529Y-107163946D01*
X130677007Y-107172004D01*
X130653803Y-107177816D01*
X130630142Y-107181326D01*
X130606250Y-107182500D01*
X129693750Y-107182500D01*
X129669858Y-107181326D01*
X129646197Y-107177816D01*
X129622993Y-107172004D01*
X129600471Y-107163946D01*
X129578847Y-107153718D01*
X129558330Y-107141421D01*
X129539117Y-107127171D01*
X129521393Y-107111107D01*
X129505329Y-107093383D01*
X129491079Y-107074170D01*
X129478782Y-107053653D01*
X129468554Y-107032029D01*
X129460496Y-107009507D01*
X129454684Y-106986303D01*
X129451174Y-106962642D01*
X129450000Y-106938750D01*
X129450000Y-106451250D01*
X129451174Y-106427358D01*
X129454684Y-106403697D01*
X129460496Y-106380493D01*
X129468554Y-106357971D01*
X129478782Y-106336347D01*
X129491079Y-106315830D01*
X129505329Y-106296617D01*
X129521393Y-106278893D01*
X129539117Y-106262829D01*
X129558330Y-106248579D01*
X129578847Y-106236282D01*
X129600471Y-106226054D01*
X129622993Y-106217996D01*
X129646197Y-106212184D01*
X129669858Y-106208674D01*
X129693750Y-106207500D01*
X130606250Y-106207500D01*
X130630142Y-106208674D01*
X130630142Y-106208674D01*
G37*
D11*
G04 #@! TD*
G04 #@! TO.P,L1,2*
G04 #@! TO.N,Net-(C4-Pad1)*
X130150000Y-106695000D03*
D15*
G04 #@! TO.P,Q1,2*
G04 #@! TO.N,Net-(Q1-Pad2)*
X136690000Y-107360000D03*
G04 #@! TO.P,Q1,3*
G04 #@! TO.N,Net-(C2-Pad1)*
X136690000Y-104820000D03*
D14*
G04 #@! TO.P,Q1,1*
G04 #@! TO.N,Net-(C3-Pad1)*
X136690000Y-109900000D03*
G04 #@! TD*
G04 #@! TO.P,Q2,1*
G04 #@! TO.N,Net-(C2-Pad1)*
X154340000Y-98600000D03*
D15*
G04 #@! TO.P,Q2,3*
G04 #@! TO.N,GND*
X159420000Y-98600000D03*
G04 #@! TO.P,Q2,2*
G04 #@! TO.N,Net-(Q2-Pad2)*
X156880000Y-98600000D03*
G04 #@! TD*
D10*
G04 #@! TO.N,Net-(C1-Pad1)*
G04 #@! TO.C,R1*
G36*
X159030142Y-106371174D02*
X159053803Y-106374684D01*
X159077007Y-106380496D01*
X159099529Y-106388554D01*
X159121153Y-106398782D01*
X159141670Y-106411079D01*
X159160883Y-106425329D01*
X159178607Y-106441393D01*
X159194671Y-106459117D01*
X159208921Y-106478330D01*
X159221218Y-106498847D01*
X159231446Y-106520471D01*
X159239504Y-106542993D01*
X159245316Y-106566197D01*
X159248826Y-106589858D01*
X159250000Y-106613750D01*
X159250000Y-107526250D01*
X159248826Y-107550142D01*
X159245316Y-107573803D01*
X159239504Y-107597007D01*
X159231446Y-107619529D01*
X159221218Y-107641153D01*
X159208921Y-107661670D01*
X159194671Y-107680883D01*
X159178607Y-107698607D01*
X159160883Y-107714671D01*
X159141670Y-107728921D01*
X159121153Y-107741218D01*
X159099529Y-107751446D01*
X159077007Y-107759504D01*
X159053803Y-107765316D01*
X159030142Y-107768826D01*
X159006250Y-107770000D01*
X158518750Y-107770000D01*
X158494858Y-107768826D01*
X158471197Y-107765316D01*
X158447993Y-107759504D01*
X158425471Y-107751446D01*
X158403847Y-107741218D01*
X158383330Y-107728921D01*
X158364117Y-107714671D01*
X158346393Y-107698607D01*
X158330329Y-107680883D01*
X158316079Y-107661670D01*
X158303782Y-107641153D01*
X158293554Y-107619529D01*
X158285496Y-107597007D01*
X158279684Y-107573803D01*
X158276174Y-107550142D01*
X158275000Y-107526250D01*
X158275000Y-106613750D01*
X158276174Y-106589858D01*
X158279684Y-106566197D01*
X158285496Y-106542993D01*
X158293554Y-106520471D01*
X158303782Y-106498847D01*
X158316079Y-106478330D01*
X158330329Y-106459117D01*
X158346393Y-106441393D01*
X158364117Y-106425329D01*
X158383330Y-106411079D01*
X158403847Y-106398782D01*
X158425471Y-106388554D01*
X158447993Y-106380496D01*
X158471197Y-106374684D01*
X158494858Y-106371174D01*
X158518750Y-106370000D01*
X159006250Y-106370000D01*
X159030142Y-106371174D01*
X159030142Y-106371174D01*
G37*
D11*
G04 #@! TD*
G04 #@! TO.P,R1,1*
G04 #@! TO.N,Net-(C1-Pad1)*
X158762500Y-107070000D03*
D10*
G04 #@! TO.N,Net-(J1-Pad2)*
G04 #@! TO.C,R1*
G36*
X160905142Y-106371174D02*
X160928803Y-106374684D01*
X160952007Y-106380496D01*
X160974529Y-106388554D01*
X160996153Y-106398782D01*
X161016670Y-106411079D01*
X161035883Y-106425329D01*
X161053607Y-106441393D01*
X161069671Y-106459117D01*
X161083921Y-106478330D01*
X161096218Y-106498847D01*
X161106446Y-106520471D01*
X161114504Y-106542993D01*
X161120316Y-106566197D01*
X161123826Y-106589858D01*
X161125000Y-106613750D01*
X161125000Y-107526250D01*
X161123826Y-107550142D01*
X161120316Y-107573803D01*
X161114504Y-107597007D01*
X161106446Y-107619529D01*
X161096218Y-107641153D01*
X161083921Y-107661670D01*
X161069671Y-107680883D01*
X161053607Y-107698607D01*
X161035883Y-107714671D01*
X161016670Y-107728921D01*
X160996153Y-107741218D01*
X160974529Y-107751446D01*
X160952007Y-107759504D01*
X160928803Y-107765316D01*
X160905142Y-107768826D01*
X160881250Y-107770000D01*
X160393750Y-107770000D01*
X160369858Y-107768826D01*
X160346197Y-107765316D01*
X160322993Y-107759504D01*
X160300471Y-107751446D01*
X160278847Y-107741218D01*
X160258330Y-107728921D01*
X160239117Y-107714671D01*
X160221393Y-107698607D01*
X160205329Y-107680883D01*
X160191079Y-107661670D01*
X160178782Y-107641153D01*
X160168554Y-107619529D01*
X160160496Y-107597007D01*
X160154684Y-107573803D01*
X160151174Y-107550142D01*
X160150000Y-107526250D01*
X160150000Y-106613750D01*
X160151174Y-106589858D01*
X160154684Y-106566197D01*
X160160496Y-106542993D01*
X160168554Y-106520471D01*
X160178782Y-106498847D01*
X160191079Y-106478330D01*
X160205329Y-106459117D01*
X160221393Y-106441393D01*
X160239117Y-106425329D01*
X160258330Y-106411079D01*
X160278847Y-106398782D01*
X160300471Y-106388554D01*
X160322993Y-106380496D01*
X160346197Y-106374684D01*
X160369858Y-106371174D01*
X160393750Y-106370000D01*
X160881250Y-106370000D01*
X160905142Y-106371174D01*
X160905142Y-106371174D01*
G37*
D11*
G04 #@! TD*
G04 #@! TO.P,R1,2*
G04 #@! TO.N,Net-(J1-Pad2)*
X160637500Y-107070000D03*
D10*
G04 #@! TO.N,GND*
G04 #@! TO.C,R2*
G36*
X127420142Y-110758674D02*
X127443803Y-110762184D01*
X127467007Y-110767996D01*
X127489529Y-110776054D01*
X127511153Y-110786282D01*
X127531670Y-110798579D01*
X127550883Y-110812829D01*
X127568607Y-110828893D01*
X127584671Y-110846617D01*
X127598921Y-110865830D01*
X127611218Y-110886347D01*
X127621446Y-110907971D01*
X127629504Y-110930493D01*
X127635316Y-110953697D01*
X127638826Y-110977358D01*
X127640000Y-111001250D01*
X127640000Y-111488750D01*
X127638826Y-111512642D01*
X127635316Y-111536303D01*
X127629504Y-111559507D01*
X127621446Y-111582029D01*
X127611218Y-111603653D01*
X127598921Y-111624170D01*
X127584671Y-111643383D01*
X127568607Y-111661107D01*
X127550883Y-111677171D01*
X127531670Y-111691421D01*
X127511153Y-111703718D01*
X127489529Y-111713946D01*
X127467007Y-111722004D01*
X127443803Y-111727816D01*
X127420142Y-111731326D01*
X127396250Y-111732500D01*
X126483750Y-111732500D01*
X126459858Y-111731326D01*
X126436197Y-111727816D01*
X126412993Y-111722004D01*
X126390471Y-111713946D01*
X126368847Y-111703718D01*
X126348330Y-111691421D01*
X126329117Y-111677171D01*
X126311393Y-111661107D01*
X126295329Y-111643383D01*
X126281079Y-111624170D01*
X126268782Y-111603653D01*
X126258554Y-111582029D01*
X126250496Y-111559507D01*
X126244684Y-111536303D01*
X126241174Y-111512642D01*
X126240000Y-111488750D01*
X126240000Y-111001250D01*
X126241174Y-110977358D01*
X126244684Y-110953697D01*
X126250496Y-110930493D01*
X126258554Y-110907971D01*
X126268782Y-110886347D01*
X126281079Y-110865830D01*
X126295329Y-110846617D01*
X126311393Y-110828893D01*
X126329117Y-110812829D01*
X126348330Y-110798579D01*
X126368847Y-110786282D01*
X126390471Y-110776054D01*
X126412993Y-110767996D01*
X126436197Y-110762184D01*
X126459858Y-110758674D01*
X126483750Y-110757500D01*
X127396250Y-110757500D01*
X127420142Y-110758674D01*
X127420142Y-110758674D01*
G37*
D11*
G04 #@! TD*
G04 #@! TO.P,R2,2*
G04 #@! TO.N,GND*
X126940000Y-111245000D03*
D10*
G04 #@! TO.N,Net-(C4-Pad1)*
G04 #@! TO.C,R2*
G36*
X127420142Y-108883674D02*
X127443803Y-108887184D01*
X127467007Y-108892996D01*
X127489529Y-108901054D01*
X127511153Y-108911282D01*
X127531670Y-108923579D01*
X127550883Y-108937829D01*
X127568607Y-108953893D01*
X127584671Y-108971617D01*
X127598921Y-108990830D01*
X127611218Y-109011347D01*
X127621446Y-109032971D01*
X127629504Y-109055493D01*
X127635316Y-109078697D01*
X127638826Y-109102358D01*
X127640000Y-109126250D01*
X127640000Y-109613750D01*
X127638826Y-109637642D01*
X127635316Y-109661303D01*
X127629504Y-109684507D01*
X127621446Y-109707029D01*
X127611218Y-109728653D01*
X127598921Y-109749170D01*
X127584671Y-109768383D01*
X127568607Y-109786107D01*
X127550883Y-109802171D01*
X127531670Y-109816421D01*
X127511153Y-109828718D01*
X127489529Y-109838946D01*
X127467007Y-109847004D01*
X127443803Y-109852816D01*
X127420142Y-109856326D01*
X127396250Y-109857500D01*
X126483750Y-109857500D01*
X126459858Y-109856326D01*
X126436197Y-109852816D01*
X126412993Y-109847004D01*
X126390471Y-109838946D01*
X126368847Y-109828718D01*
X126348330Y-109816421D01*
X126329117Y-109802171D01*
X126311393Y-109786107D01*
X126295329Y-109768383D01*
X126281079Y-109749170D01*
X126268782Y-109728653D01*
X126258554Y-109707029D01*
X126250496Y-109684507D01*
X126244684Y-109661303D01*
X126241174Y-109637642D01*
X126240000Y-109613750D01*
X126240000Y-109126250D01*
X126241174Y-109102358D01*
X126244684Y-109078697D01*
X126250496Y-109055493D01*
X126258554Y-109032971D01*
X126268782Y-109011347D01*
X126281079Y-108990830D01*
X126295329Y-108971617D01*
X126311393Y-108953893D01*
X126329117Y-108937829D01*
X126348330Y-108923579D01*
X126368847Y-108911282D01*
X126390471Y-108901054D01*
X126412993Y-108892996D01*
X126436197Y-108887184D01*
X126459858Y-108883674D01*
X126483750Y-108882500D01*
X127396250Y-108882500D01*
X127420142Y-108883674D01*
X127420142Y-108883674D01*
G37*
D11*
G04 #@! TD*
G04 #@! TO.P,R2,1*
G04 #@! TO.N,Net-(C4-Pad1)*
X126940000Y-109370000D03*
D17*
G04 #@! TO.P,U1,1*
G04 #@! TO.N,Net-(C2-Pad1)*
X148049000Y-104521000D03*
G04 #@! TO.P,U1,2*
G04 #@! TO.N,Net-(Q1-Pad2)*
X148049000Y-105791000D03*
G04 #@! TO.P,U1,3*
G04 #@! TO.N,Net-(C2-Pad2)*
X148049000Y-107061000D03*
G04 #@! TO.P,U1,4*
G04 #@! TO.N,Net-(J3-Pad1)*
X148049000Y-108331000D03*
G04 #@! TO.P,U1,5*
G04 #@! TO.N,Net-(J2-Pad1)*
X153449000Y-108331000D03*
G04 #@! TO.P,U1,6*
G04 #@! TO.N,Net-(C1-Pad1)*
X153449000Y-107061000D03*
G04 #@! TO.P,U1,7*
G04 #@! TO.N,Net-(Q2-Pad2)*
X153449000Y-105791000D03*
G04 #@! TO.P,U1,8*
G04 #@! TO.N,GND*
X153449000Y-104521000D03*
G04 #@! TD*
D18*
G04 #@! TO.N,Net-(Q1-Pad2)*
X145850000Y-105730000D03*
G04 #@! TD*
D19*
G04 #@! TO.N,Net-(C1-Pad1)*
X158753500Y-107061000D02*
X158762500Y-107070000D01*
X153449000Y-107061000D02*
X158753500Y-107061000D01*
X158762500Y-110872500D02*
X158735000Y-110900000D01*
X158762500Y-107070000D02*
X158762500Y-110872500D01*
X158735000Y-113155000D02*
X155080000Y-116810000D01*
X158735000Y-110900000D02*
X158735000Y-113155000D01*
G04 #@! TO.N,Net-(C2-Pad2)*
X147623000Y-106635000D02*
X148049000Y-107061000D01*
X142380000Y-106635000D02*
X147623000Y-106635000D01*
X143570000Y-116810000D02*
X144920000Y-116810000D01*
X142380000Y-115620000D02*
X143570000Y-116810000D01*
X142380000Y-106635000D02*
X142380000Y-115620000D01*
G04 #@! TO.N,Net-(C2-Pad1)*
X154340000Y-99600000D02*
X154340000Y-98600000D01*
X149419000Y-104521000D02*
X154340000Y-99600000D01*
X148049000Y-104521000D02*
X149419000Y-104521000D01*
X147810000Y-104760000D02*
X148049000Y-104521000D01*
X142380000Y-104760000D02*
X147810000Y-104760000D01*
X130150000Y-104820000D02*
X136690000Y-104820000D01*
X136750000Y-104760000D02*
X136690000Y-104820000D01*
X142320000Y-104820000D02*
X142380000Y-104760000D01*
X136690000Y-104820000D02*
X142320000Y-104820000D01*
G04 #@! TO.N,Net-(C3-Pad1)*
X136690000Y-110900000D02*
X136690000Y-113460000D01*
X136690000Y-109900000D02*
X136690000Y-110900000D01*
X136690000Y-117400000D02*
X136540000Y-117550000D01*
X136690000Y-113460000D02*
X136690000Y-117400000D01*
G04 #@! TO.N,Net-(C4-Pad1)*
X126880000Y-109310000D02*
X126940000Y-109370000D01*
X126880000Y-106570000D02*
X126880000Y-109310000D01*
X126940000Y-109370000D02*
X130150000Y-109370000D01*
X130150000Y-106695000D02*
X130150000Y-109370000D01*
G04 #@! TO.N,Net-(J1-Pad2)*
X164710000Y-107070000D02*
X164760000Y-107120000D01*
X160637500Y-107070000D02*
X164710000Y-107070000D01*
G04 #@! TO.N,Net-(J2-Pad1)*
X153449000Y-111799000D02*
X153480000Y-111830000D01*
X153449000Y-108331000D02*
X153449000Y-111799000D01*
G04 #@! TO.N,Net-(J3-Pad1)*
X148049000Y-111579000D02*
X148160000Y-111690000D01*
X148049000Y-108331000D02*
X148049000Y-111579000D01*
G04 #@! TO.N,Net-(Q1-Pad2)*
X145911000Y-105791000D02*
X145850000Y-105730000D01*
X148049000Y-105791000D02*
X145911000Y-105791000D01*
G04 #@! TO.N,Net-(Q2-Pad2)*
X153924000Y-105791000D02*
X153449000Y-105791000D01*
X156880000Y-102835000D02*
X153924000Y-105791000D01*
X156880000Y-98600000D02*
X156880000Y-102835000D01*
G04 #@! TD*
D20*
G04 #@! TO.N,GND*
G36*
X166980000Y-119990000D02*
X123850000Y-119990000D01*
X123850000Y-118521517D01*
X133208088Y-118521517D01*
X133276077Y-118762460D01*
X133795171Y-118947201D01*
X134345448Y-118919230D01*
X134723923Y-118762460D01*
X134791912Y-118521517D01*
X134000000Y-117729605D01*
X133208088Y-118521517D01*
X123850000Y-118521517D01*
X123850000Y-117345171D01*
X132602799Y-117345171D01*
X132630770Y-117895448D01*
X132787540Y-118273923D01*
X133028483Y-118341912D01*
X133820395Y-117550000D01*
X133028483Y-116758088D01*
X132787540Y-116826077D01*
X132602799Y-117345171D01*
X123850000Y-117345171D01*
X123850000Y-116578483D01*
X133208088Y-116578483D01*
X134000000Y-117370395D01*
X134791912Y-116578483D01*
X134723923Y-116337540D01*
X134204829Y-116152799D01*
X133654552Y-116180770D01*
X133276077Y-116337540D01*
X133208088Y-116578483D01*
X123850000Y-116578483D01*
X123850000Y-113745750D01*
X133692500Y-113745750D01*
X133692500Y-114286310D01*
X133789173Y-114519699D01*
X133967802Y-114698327D01*
X134201191Y-114795000D01*
X134529250Y-114795000D01*
X134688000Y-114636250D01*
X134688000Y-113587000D01*
X133851250Y-113587000D01*
X133692500Y-113745750D01*
X123850000Y-113745750D01*
X123850000Y-112633690D01*
X133692500Y-112633690D01*
X133692500Y-113174250D01*
X133851250Y-113333000D01*
X134688000Y-113333000D01*
X134688000Y-112283750D01*
X134529250Y-112125000D01*
X134201191Y-112125000D01*
X133967802Y-112221673D01*
X133789173Y-112400301D01*
X133692500Y-112633690D01*
X123850000Y-112633690D01*
X123850000Y-111530750D01*
X125605000Y-111530750D01*
X125605000Y-111858809D01*
X125701673Y-112092198D01*
X125880301Y-112270827D01*
X126113690Y-112367500D01*
X126654250Y-112367500D01*
X126813000Y-112208750D01*
X126813000Y-111372000D01*
X127067000Y-111372000D01*
X127067000Y-112208750D01*
X127225750Y-112367500D01*
X127766310Y-112367500D01*
X127999699Y-112270827D01*
X128178327Y-112092198D01*
X128275000Y-111858809D01*
X128275000Y-111530750D01*
X128815000Y-111530750D01*
X128815000Y-111858809D01*
X128911673Y-112092198D01*
X129090301Y-112270827D01*
X129323690Y-112367500D01*
X129864250Y-112367500D01*
X130023000Y-112208750D01*
X130023000Y-111372000D01*
X130277000Y-111372000D01*
X130277000Y-112208750D01*
X130435750Y-112367500D01*
X130976310Y-112367500D01*
X131209699Y-112270827D01*
X131388327Y-112092198D01*
X131485000Y-111858809D01*
X131485000Y-111530750D01*
X131326250Y-111372000D01*
X130277000Y-111372000D01*
X130023000Y-111372000D01*
X128973750Y-111372000D01*
X128815000Y-111530750D01*
X128275000Y-111530750D01*
X128116250Y-111372000D01*
X127067000Y-111372000D01*
X126813000Y-111372000D01*
X125763750Y-111372000D01*
X125605000Y-111530750D01*
X123850000Y-111530750D01*
X123850000Y-105820000D01*
X125482560Y-105820000D01*
X125482560Y-107320000D01*
X125531843Y-107567765D01*
X125672191Y-107777809D01*
X125882235Y-107918157D01*
X126120001Y-107965451D01*
X126120001Y-108318069D01*
X125853584Y-108496084D01*
X125660398Y-108785206D01*
X125592560Y-109126250D01*
X125592560Y-109613750D01*
X125660398Y-109954794D01*
X125853584Y-110243916D01*
X125854767Y-110244707D01*
X125701673Y-110397802D01*
X125605000Y-110631191D01*
X125605000Y-110959250D01*
X125763750Y-111118000D01*
X126813000Y-111118000D01*
X126813000Y-111098000D01*
X127067000Y-111098000D01*
X127067000Y-111118000D01*
X128116250Y-111118000D01*
X128275000Y-110959250D01*
X128275000Y-110631191D01*
X128178327Y-110397802D01*
X128025233Y-110244707D01*
X128026416Y-110243916D01*
X128102533Y-110130000D01*
X128987467Y-110130000D01*
X129063584Y-110243916D01*
X129064767Y-110244707D01*
X128911673Y-110397802D01*
X128815000Y-110631191D01*
X128815000Y-110959250D01*
X128973750Y-111118000D01*
X130023000Y-111118000D01*
X130023000Y-111098000D01*
X130277000Y-111098000D01*
X130277000Y-111118000D01*
X131326250Y-111118000D01*
X131485000Y-110959250D01*
X131485000Y-110631191D01*
X131388327Y-110397802D01*
X131235233Y-110244707D01*
X131236416Y-110243916D01*
X131429602Y-109954794D01*
X131497440Y-109613750D01*
X131497440Y-109126250D01*
X131429602Y-108785206D01*
X131236416Y-108496084D01*
X130947294Y-108302898D01*
X130910000Y-108295480D01*
X130910000Y-107769520D01*
X130947294Y-107762102D01*
X131236416Y-107568916D01*
X131429602Y-107279794D01*
X131497440Y-106938750D01*
X131497440Y-106451250D01*
X131429602Y-106110206D01*
X131236416Y-105821084D01*
X131141256Y-105757500D01*
X131236416Y-105693916D01*
X131312533Y-105580000D01*
X135505688Y-105580000D01*
X135515853Y-105604540D01*
X135905460Y-105994147D01*
X136136870Y-106090000D01*
X135905460Y-106185853D01*
X135515853Y-106575460D01*
X135305000Y-107084506D01*
X135305000Y-107635494D01*
X135515853Y-108144540D01*
X135884844Y-108513531D01*
X135692235Y-108551843D01*
X135482191Y-108692191D01*
X135341843Y-108902235D01*
X135292560Y-109150000D01*
X135292560Y-110650000D01*
X135341843Y-110897765D01*
X135482191Y-111107809D01*
X135692235Y-111248157D01*
X135930000Y-111295451D01*
X135930001Y-112297467D01*
X135816084Y-112373584D01*
X135815293Y-112374767D01*
X135662198Y-112221673D01*
X135428809Y-112125000D01*
X135100750Y-112125000D01*
X134942000Y-112283750D01*
X134942000Y-113333000D01*
X134962000Y-113333000D01*
X134962000Y-113587000D01*
X134942000Y-113587000D01*
X134942000Y-114636250D01*
X135100750Y-114795000D01*
X135428809Y-114795000D01*
X135662198Y-114698327D01*
X135815293Y-114545233D01*
X135816084Y-114546416D01*
X135930000Y-114622533D01*
X135930001Y-116152560D01*
X135790000Y-116152560D01*
X135542235Y-116201843D01*
X135332191Y-116342191D01*
X135191843Y-116552235D01*
X135142560Y-116800000D01*
X135142560Y-116806353D01*
X134971517Y-116758088D01*
X134179605Y-117550000D01*
X134971517Y-118341912D01*
X135142560Y-118293647D01*
X135142560Y-118300000D01*
X135191843Y-118547765D01*
X135332191Y-118757809D01*
X135542235Y-118898157D01*
X135790000Y-118947440D01*
X137290000Y-118947440D01*
X137537765Y-118898157D01*
X137747809Y-118757809D01*
X137888157Y-118547765D01*
X137937440Y-118300000D01*
X137937440Y-116800000D01*
X137888157Y-116552235D01*
X137747809Y-116342191D01*
X137537765Y-116201843D01*
X137450000Y-116184386D01*
X137450000Y-114622533D01*
X137563916Y-114546416D01*
X137757102Y-114257294D01*
X137824940Y-113916250D01*
X137824940Y-113003750D01*
X137757102Y-112662706D01*
X137563916Y-112373584D01*
X137450000Y-112297467D01*
X137450000Y-111295451D01*
X137687765Y-111248157D01*
X137897809Y-111107809D01*
X138038157Y-110897765D01*
X138087440Y-110650000D01*
X138087440Y-109150000D01*
X138038157Y-108902235D01*
X137897809Y-108692191D01*
X137687765Y-108551843D01*
X137495156Y-108513531D01*
X137864147Y-108144540D01*
X138075000Y-107635494D01*
X138075000Y-107084506D01*
X137864147Y-106575460D01*
X137474540Y-106185853D01*
X137243130Y-106090000D01*
X137474540Y-105994147D01*
X137864147Y-105604540D01*
X137874312Y-105580000D01*
X141257558Y-105580000D01*
X141293584Y-105633916D01*
X141388744Y-105697500D01*
X141293584Y-105761084D01*
X141100398Y-106050206D01*
X141032560Y-106391250D01*
X141032560Y-106878750D01*
X141100398Y-107219794D01*
X141293584Y-107508916D01*
X141582706Y-107702102D01*
X141620000Y-107709520D01*
X141620001Y-115545148D01*
X141605112Y-115620000D01*
X141620001Y-115694852D01*
X141664097Y-115916537D01*
X141832072Y-116167929D01*
X141895528Y-116210329D01*
X142979671Y-117294473D01*
X143022071Y-117357929D01*
X143172560Y-117458483D01*
X143172560Y-117910000D01*
X143221843Y-118157765D01*
X143362191Y-118367809D01*
X143572235Y-118508157D01*
X143820000Y-118557440D01*
X146020000Y-118557440D01*
X146267765Y-118508157D01*
X146477809Y-118367809D01*
X146618157Y-118157765D01*
X146667440Y-117910000D01*
X146667440Y-115710000D01*
X146618157Y-115462235D01*
X146477809Y-115252191D01*
X146267765Y-115111843D01*
X146020000Y-115062560D01*
X143820000Y-115062560D01*
X143572235Y-115111843D01*
X143362191Y-115252191D01*
X143251961Y-115417160D01*
X143140000Y-115305199D01*
X143140000Y-107709520D01*
X143177294Y-107702102D01*
X143466416Y-107508916D01*
X143542533Y-107395000D01*
X146633323Y-107395000D01*
X146675843Y-107608765D01*
X146734132Y-107696000D01*
X146675843Y-107783235D01*
X146626560Y-108031000D01*
X146626560Y-108631000D01*
X146675843Y-108878765D01*
X146816191Y-109088809D01*
X147026235Y-109229157D01*
X147274000Y-109278440D01*
X147289000Y-109278440D01*
X147289001Y-110317467D01*
X147162935Y-110342543D01*
X146952891Y-110482891D01*
X146812543Y-110692935D01*
X146763260Y-110940700D01*
X146763260Y-112439300D01*
X146812543Y-112687065D01*
X146952891Y-112897109D01*
X147162935Y-113037457D01*
X147410700Y-113086740D01*
X148909300Y-113086740D01*
X149157065Y-113037457D01*
X149367109Y-112897109D01*
X149507457Y-112687065D01*
X149556740Y-112439300D01*
X149556740Y-110940700D01*
X149507457Y-110692935D01*
X149367109Y-110482891D01*
X149157065Y-110342543D01*
X148909300Y-110293260D01*
X148809000Y-110293260D01*
X148809000Y-109278440D01*
X148824000Y-109278440D01*
X149071765Y-109229157D01*
X149281809Y-109088809D01*
X149422157Y-108878765D01*
X149471440Y-108631000D01*
X149471440Y-108031000D01*
X149422157Y-107783235D01*
X149363868Y-107696000D01*
X149422157Y-107608765D01*
X149471440Y-107361000D01*
X149471440Y-106761000D01*
X149422157Y-106513235D01*
X149363868Y-106426000D01*
X149422157Y-106338765D01*
X149471440Y-106091000D01*
X149471440Y-105491000D01*
X149432111Y-105293280D01*
X149493847Y-105281000D01*
X149493852Y-105281000D01*
X149715537Y-105236904D01*
X149966929Y-105068929D01*
X150009331Y-105005470D01*
X150920111Y-104094690D01*
X152039000Y-104094690D01*
X152039000Y-104235250D01*
X152197750Y-104394000D01*
X153322000Y-104394000D01*
X153322000Y-103744750D01*
X153163250Y-103586000D01*
X152547691Y-103586000D01*
X152314302Y-103682673D01*
X152135673Y-103861301D01*
X152039000Y-104094690D01*
X150920111Y-104094690D01*
X154824473Y-100190329D01*
X154887929Y-100147929D01*
X154988483Y-99997440D01*
X155090000Y-99997440D01*
X155337765Y-99948157D01*
X155547809Y-99807809D01*
X155688157Y-99597765D01*
X155726469Y-99405156D01*
X156095460Y-99774147D01*
X156120000Y-99784312D01*
X156120001Y-102520196D01*
X154767180Y-103873018D01*
X154762327Y-103861301D01*
X154583698Y-103682673D01*
X154350309Y-103586000D01*
X153734750Y-103586000D01*
X153576000Y-103744750D01*
X153576000Y-104394000D01*
X153596000Y-104394000D01*
X153596000Y-104648000D01*
X153576000Y-104648000D01*
X153576000Y-104668000D01*
X153322000Y-104668000D01*
X153322000Y-104648000D01*
X152197750Y-104648000D01*
X152039000Y-104806750D01*
X152039000Y-104947310D01*
X152128768Y-105164028D01*
X152075843Y-105243235D01*
X152026560Y-105491000D01*
X152026560Y-106091000D01*
X152075843Y-106338765D01*
X152134132Y-106426000D01*
X152075843Y-106513235D01*
X152026560Y-106761000D01*
X152026560Y-107361000D01*
X152075843Y-107608765D01*
X152134132Y-107696000D01*
X152075843Y-107783235D01*
X152026560Y-108031000D01*
X152026560Y-108631000D01*
X152075843Y-108878765D01*
X152216191Y-109088809D01*
X152426235Y-109229157D01*
X152674000Y-109278440D01*
X152689000Y-109278440D01*
X152689001Y-110441554D01*
X152482935Y-110482543D01*
X152272891Y-110622891D01*
X152132543Y-110832935D01*
X152083260Y-111080700D01*
X152083260Y-112579300D01*
X152132543Y-112827065D01*
X152272891Y-113037109D01*
X152482935Y-113177457D01*
X152730700Y-113226740D01*
X154229300Y-113226740D01*
X154477065Y-113177457D01*
X154687109Y-113037109D01*
X154827457Y-112827065D01*
X154876740Y-112579300D01*
X154876740Y-111080700D01*
X154827457Y-110832935D01*
X154687109Y-110622891D01*
X154477065Y-110482543D01*
X154229300Y-110433260D01*
X154209000Y-110433260D01*
X154209000Y-109278440D01*
X154224000Y-109278440D01*
X154471765Y-109229157D01*
X154681809Y-109088809D01*
X154822157Y-108878765D01*
X154871440Y-108631000D01*
X154871440Y-108031000D01*
X154829669Y-107821000D01*
X157686190Y-107821000D01*
X157695398Y-107867294D01*
X157888584Y-108156416D01*
X158002500Y-108232533D01*
X158002501Y-109719092D01*
X157861084Y-109813584D01*
X157667898Y-110102706D01*
X157600060Y-110443750D01*
X157600060Y-111356250D01*
X157667898Y-111697294D01*
X157861084Y-111986416D01*
X157975001Y-112062533D01*
X157975001Y-112840197D01*
X155659016Y-115156183D01*
X155250880Y-115075000D01*
X154909120Y-115075000D01*
X154403037Y-115175666D01*
X153829135Y-115559135D01*
X153445666Y-116133037D01*
X153311010Y-116810000D01*
X153445666Y-117486963D01*
X153829135Y-118060865D01*
X154403037Y-118444334D01*
X154909120Y-118545000D01*
X155250880Y-118545000D01*
X155756963Y-118444334D01*
X156330865Y-118060865D01*
X156714334Y-117486963D01*
X156848990Y-116810000D01*
X156733817Y-116230984D01*
X159219473Y-113745329D01*
X159282929Y-113702929D01*
X159450904Y-113451537D01*
X159495000Y-113229852D01*
X159495000Y-113229848D01*
X159509888Y-113155000D01*
X159495000Y-113080152D01*
X159495000Y-112062533D01*
X159608916Y-111986416D01*
X159609707Y-111985233D01*
X159762802Y-112138327D01*
X159996191Y-112235000D01*
X160324250Y-112235000D01*
X160483000Y-112076250D01*
X160483000Y-111027000D01*
X160737000Y-111027000D01*
X160737000Y-112076250D01*
X160895750Y-112235000D01*
X161223809Y-112235000D01*
X161457198Y-112138327D01*
X161635827Y-111959699D01*
X161732500Y-111726310D01*
X161732500Y-111185750D01*
X161573750Y-111027000D01*
X160737000Y-111027000D01*
X160483000Y-111027000D01*
X160463000Y-111027000D01*
X160463000Y-110773000D01*
X160483000Y-110773000D01*
X160483000Y-109723750D01*
X160737000Y-109723750D01*
X160737000Y-110773000D01*
X161573750Y-110773000D01*
X161715233Y-110631517D01*
X163968088Y-110631517D01*
X164036077Y-110872460D01*
X164555171Y-111057201D01*
X165105448Y-111029230D01*
X165483923Y-110872460D01*
X165551912Y-110631517D01*
X164760000Y-109839605D01*
X163968088Y-110631517D01*
X161715233Y-110631517D01*
X161732500Y-110614250D01*
X161732500Y-110073690D01*
X161635827Y-109840301D01*
X161457198Y-109661673D01*
X161223809Y-109565000D01*
X160895750Y-109565000D01*
X160737000Y-109723750D01*
X160483000Y-109723750D01*
X160324250Y-109565000D01*
X159996191Y-109565000D01*
X159762802Y-109661673D01*
X159609707Y-109814767D01*
X159608916Y-109813584D01*
X159522500Y-109755842D01*
X159522500Y-109455171D01*
X163362799Y-109455171D01*
X163390770Y-110005448D01*
X163547540Y-110383923D01*
X163788483Y-110451912D01*
X164580395Y-109660000D01*
X164939605Y-109660000D01*
X165731517Y-110451912D01*
X165972460Y-110383923D01*
X166157201Y-109864829D01*
X166129230Y-109314552D01*
X165972460Y-108936077D01*
X165731517Y-108868088D01*
X164939605Y-109660000D01*
X164580395Y-109660000D01*
X163788483Y-108868088D01*
X163547540Y-108936077D01*
X163362799Y-109455171D01*
X159522500Y-109455171D01*
X159522500Y-108232533D01*
X159636416Y-108156416D01*
X159700000Y-108061256D01*
X159763584Y-108156416D01*
X160052706Y-108349602D01*
X160393750Y-108417440D01*
X160881250Y-108417440D01*
X161222294Y-108349602D01*
X161511416Y-108156416D01*
X161704602Y-107867294D01*
X161712020Y-107830000D01*
X163362560Y-107830000D01*
X163362560Y-107870000D01*
X163411843Y-108117765D01*
X163552191Y-108327809D01*
X163762235Y-108468157D01*
X164010000Y-108517440D01*
X164016353Y-108517440D01*
X163968088Y-108688483D01*
X164760000Y-109480395D01*
X165551912Y-108688483D01*
X165503647Y-108517440D01*
X165510000Y-108517440D01*
X165757765Y-108468157D01*
X165967809Y-108327809D01*
X166108157Y-108117765D01*
X166157440Y-107870000D01*
X166157440Y-106370000D01*
X166108157Y-106122235D01*
X165967809Y-105912191D01*
X165757765Y-105771843D01*
X165510000Y-105722560D01*
X164010000Y-105722560D01*
X163762235Y-105771843D01*
X163552191Y-105912191D01*
X163411843Y-106122235D01*
X163374495Y-106310000D01*
X161712020Y-106310000D01*
X161704602Y-106272706D01*
X161511416Y-105983584D01*
X161222294Y-105790398D01*
X160881250Y-105722560D01*
X160393750Y-105722560D01*
X160052706Y-105790398D01*
X159763584Y-105983584D01*
X159700000Y-106078744D01*
X159636416Y-105983584D01*
X159347294Y-105790398D01*
X159006250Y-105722560D01*
X158518750Y-105722560D01*
X158177706Y-105790398D01*
X157888584Y-105983584D01*
X157695398Y-106272706D01*
X157689770Y-106301000D01*
X154829669Y-106301000D01*
X154871440Y-106091000D01*
X154871440Y-105918361D01*
X157364476Y-103425327D01*
X157427929Y-103382929D01*
X157470327Y-103319476D01*
X157470329Y-103319474D01*
X157595903Y-103131538D01*
X157595904Y-103131537D01*
X157640000Y-102909852D01*
X157640000Y-102909848D01*
X157654888Y-102835001D01*
X157640000Y-102760154D01*
X157640000Y-99784312D01*
X157664540Y-99774147D01*
X157867170Y-99571517D01*
X158628088Y-99571517D01*
X158696077Y-99812460D01*
X159215171Y-99997201D01*
X159765448Y-99969230D01*
X160143923Y-99812460D01*
X160211912Y-99571517D01*
X159420000Y-98779605D01*
X158628088Y-99571517D01*
X157867170Y-99571517D01*
X158054147Y-99384540D01*
X158143397Y-99169070D01*
X158207540Y-99323923D01*
X158448483Y-99391912D01*
X159240395Y-98600000D01*
X159599605Y-98600000D01*
X160391517Y-99391912D01*
X160632460Y-99323923D01*
X160817201Y-98804829D01*
X160789230Y-98254552D01*
X160632460Y-97876077D01*
X160391517Y-97808088D01*
X159599605Y-98600000D01*
X159240395Y-98600000D01*
X158448483Y-97808088D01*
X158207540Y-97876077D01*
X158148255Y-98042658D01*
X158054147Y-97815460D01*
X157867170Y-97628483D01*
X158628088Y-97628483D01*
X159420000Y-98420395D01*
X160211912Y-97628483D01*
X160143923Y-97387540D01*
X159624829Y-97202799D01*
X159074552Y-97230770D01*
X158696077Y-97387540D01*
X158628088Y-97628483D01*
X157867170Y-97628483D01*
X157664540Y-97425853D01*
X157155494Y-97215000D01*
X156604506Y-97215000D01*
X156095460Y-97425853D01*
X155726469Y-97794844D01*
X155688157Y-97602235D01*
X155547809Y-97392191D01*
X155337765Y-97251843D01*
X155090000Y-97202560D01*
X153590000Y-97202560D01*
X153342235Y-97251843D01*
X153132191Y-97392191D01*
X152991843Y-97602235D01*
X152942560Y-97850000D01*
X152942560Y-99350000D01*
X152991843Y-99597765D01*
X153102229Y-99762969D01*
X149174026Y-103691172D01*
X149071765Y-103622843D01*
X148824000Y-103573560D01*
X147274000Y-103573560D01*
X147026235Y-103622843D01*
X146816191Y-103763191D01*
X146675843Y-103973235D01*
X146670519Y-104000000D01*
X143542533Y-104000000D01*
X143466416Y-103886084D01*
X143177294Y-103692898D01*
X142836250Y-103625060D01*
X141923750Y-103625060D01*
X141582706Y-103692898D01*
X141293584Y-103886084D01*
X141177377Y-104060000D01*
X137874312Y-104060000D01*
X137864147Y-104035460D01*
X137474540Y-103645853D01*
X136965494Y-103435000D01*
X136414506Y-103435000D01*
X135905460Y-103645853D01*
X135515853Y-104035460D01*
X135505688Y-104060000D01*
X131312533Y-104060000D01*
X131236416Y-103946084D01*
X130947294Y-103752898D01*
X130606250Y-103685060D01*
X129693750Y-103685060D01*
X129352706Y-103752898D01*
X129063584Y-103946084D01*
X128870398Y-104235206D01*
X128802560Y-104576250D01*
X128802560Y-105063750D01*
X128870398Y-105404794D01*
X129063584Y-105693916D01*
X129158744Y-105757500D01*
X129063584Y-105821084D01*
X128870398Y-106110206D01*
X128802560Y-106451250D01*
X128802560Y-106938750D01*
X128870398Y-107279794D01*
X129063584Y-107568916D01*
X129352706Y-107762102D01*
X129390000Y-107769520D01*
X129390001Y-108295480D01*
X129352706Y-108302898D01*
X129063584Y-108496084D01*
X128987467Y-108610000D01*
X128102533Y-108610000D01*
X128026416Y-108496084D01*
X127737294Y-108302898D01*
X127640000Y-108283545D01*
X127640000Y-107965451D01*
X127877765Y-107918157D01*
X128087809Y-107777809D01*
X128228157Y-107567765D01*
X128277440Y-107320000D01*
X128277440Y-105820000D01*
X128228157Y-105572235D01*
X128087809Y-105362191D01*
X127877765Y-105221843D01*
X127630000Y-105172560D01*
X126130000Y-105172560D01*
X125882235Y-105221843D01*
X125672191Y-105362191D01*
X125531843Y-105572235D01*
X125482560Y-105820000D01*
X123850000Y-105820000D01*
X123850000Y-94640000D01*
X166980001Y-94640000D01*
X166980000Y-119990000D01*
X166980000Y-119990000D01*
G37*
X166980000Y-119990000D02*
X123850000Y-119990000D01*
X123850000Y-118521517D01*
X133208088Y-118521517D01*
X133276077Y-118762460D01*
X133795171Y-118947201D01*
X134345448Y-118919230D01*
X134723923Y-118762460D01*
X134791912Y-118521517D01*
X134000000Y-117729605D01*
X133208088Y-118521517D01*
X123850000Y-118521517D01*
X123850000Y-117345171D01*
X132602799Y-117345171D01*
X132630770Y-117895448D01*
X132787540Y-118273923D01*
X133028483Y-118341912D01*
X133820395Y-117550000D01*
X133028483Y-116758088D01*
X132787540Y-116826077D01*
X132602799Y-117345171D01*
X123850000Y-117345171D01*
X123850000Y-116578483D01*
X133208088Y-116578483D01*
X134000000Y-117370395D01*
X134791912Y-116578483D01*
X134723923Y-116337540D01*
X134204829Y-116152799D01*
X133654552Y-116180770D01*
X133276077Y-116337540D01*
X133208088Y-116578483D01*
X123850000Y-116578483D01*
X123850000Y-113745750D01*
X133692500Y-113745750D01*
X133692500Y-114286310D01*
X133789173Y-114519699D01*
X133967802Y-114698327D01*
X134201191Y-114795000D01*
X134529250Y-114795000D01*
X134688000Y-114636250D01*
X134688000Y-113587000D01*
X133851250Y-113587000D01*
X133692500Y-113745750D01*
X123850000Y-113745750D01*
X123850000Y-112633690D01*
X133692500Y-112633690D01*
X133692500Y-113174250D01*
X133851250Y-113333000D01*
X134688000Y-113333000D01*
X134688000Y-112283750D01*
X134529250Y-112125000D01*
X134201191Y-112125000D01*
X133967802Y-112221673D01*
X133789173Y-112400301D01*
X133692500Y-112633690D01*
X123850000Y-112633690D01*
X123850000Y-111530750D01*
X125605000Y-111530750D01*
X125605000Y-111858809D01*
X125701673Y-112092198D01*
X125880301Y-112270827D01*
X126113690Y-112367500D01*
X126654250Y-112367500D01*
X126813000Y-112208750D01*
X126813000Y-111372000D01*
X127067000Y-111372000D01*
X127067000Y-112208750D01*
X127225750Y-112367500D01*
X127766310Y-112367500D01*
X127999699Y-112270827D01*
X128178327Y-112092198D01*
X128275000Y-111858809D01*
X128275000Y-111530750D01*
X128815000Y-111530750D01*
X128815000Y-111858809D01*
X128911673Y-112092198D01*
X129090301Y-112270827D01*
X129323690Y-112367500D01*
X129864250Y-112367500D01*
X130023000Y-112208750D01*
X130023000Y-111372000D01*
X130277000Y-111372000D01*
X130277000Y-112208750D01*
X130435750Y-112367500D01*
X130976310Y-112367500D01*
X131209699Y-112270827D01*
X131388327Y-112092198D01*
X131485000Y-111858809D01*
X131485000Y-111530750D01*
X131326250Y-111372000D01*
X130277000Y-111372000D01*
X130023000Y-111372000D01*
X128973750Y-111372000D01*
X128815000Y-111530750D01*
X128275000Y-111530750D01*
X128116250Y-111372000D01*
X127067000Y-111372000D01*
X126813000Y-111372000D01*
X125763750Y-111372000D01*
X125605000Y-111530750D01*
X123850000Y-111530750D01*
X123850000Y-105820000D01*
X125482560Y-105820000D01*
X125482560Y-107320000D01*
X125531843Y-107567765D01*
X125672191Y-107777809D01*
X125882235Y-107918157D01*
X126120001Y-107965451D01*
X126120001Y-108318069D01*
X125853584Y-108496084D01*
X125660398Y-108785206D01*
X125592560Y-109126250D01*
X125592560Y-109613750D01*
X125660398Y-109954794D01*
X125853584Y-110243916D01*
X125854767Y-110244707D01*
X125701673Y-110397802D01*
X125605000Y-110631191D01*
X125605000Y-110959250D01*
X125763750Y-111118000D01*
X126813000Y-111118000D01*
X126813000Y-111098000D01*
X127067000Y-111098000D01*
X127067000Y-111118000D01*
X128116250Y-111118000D01*
X128275000Y-110959250D01*
X128275000Y-110631191D01*
X128178327Y-110397802D01*
X128025233Y-110244707D01*
X128026416Y-110243916D01*
X128102533Y-110130000D01*
X128987467Y-110130000D01*
X129063584Y-110243916D01*
X129064767Y-110244707D01*
X128911673Y-110397802D01*
X128815000Y-110631191D01*
X128815000Y-110959250D01*
X128973750Y-111118000D01*
X130023000Y-111118000D01*
X130023000Y-111098000D01*
X130277000Y-111098000D01*
X130277000Y-111118000D01*
X131326250Y-111118000D01*
X131485000Y-110959250D01*
X131485000Y-110631191D01*
X131388327Y-110397802D01*
X131235233Y-110244707D01*
X131236416Y-110243916D01*
X131429602Y-109954794D01*
X131497440Y-109613750D01*
X131497440Y-109126250D01*
X131429602Y-108785206D01*
X131236416Y-108496084D01*
X130947294Y-108302898D01*
X130910000Y-108295480D01*
X130910000Y-107769520D01*
X130947294Y-107762102D01*
X131236416Y-107568916D01*
X131429602Y-107279794D01*
X131497440Y-106938750D01*
X131497440Y-106451250D01*
X131429602Y-106110206D01*
X131236416Y-105821084D01*
X131141256Y-105757500D01*
X131236416Y-105693916D01*
X131312533Y-105580000D01*
X135505688Y-105580000D01*
X135515853Y-105604540D01*
X135905460Y-105994147D01*
X136136870Y-106090000D01*
X135905460Y-106185853D01*
X135515853Y-106575460D01*
X135305000Y-107084506D01*
X135305000Y-107635494D01*
X135515853Y-108144540D01*
X135884844Y-108513531D01*
X135692235Y-108551843D01*
X135482191Y-108692191D01*
X135341843Y-108902235D01*
X135292560Y-109150000D01*
X135292560Y-110650000D01*
X135341843Y-110897765D01*
X135482191Y-111107809D01*
X135692235Y-111248157D01*
X135930000Y-111295451D01*
X135930001Y-112297467D01*
X135816084Y-112373584D01*
X135815293Y-112374767D01*
X135662198Y-112221673D01*
X135428809Y-112125000D01*
X135100750Y-112125000D01*
X134942000Y-112283750D01*
X134942000Y-113333000D01*
X134962000Y-113333000D01*
X134962000Y-113587000D01*
X134942000Y-113587000D01*
X134942000Y-114636250D01*
X135100750Y-114795000D01*
X135428809Y-114795000D01*
X135662198Y-114698327D01*
X135815293Y-114545233D01*
X135816084Y-114546416D01*
X135930000Y-114622533D01*
X135930001Y-116152560D01*
X135790000Y-116152560D01*
X135542235Y-116201843D01*
X135332191Y-116342191D01*
X135191843Y-116552235D01*
X135142560Y-116800000D01*
X135142560Y-116806353D01*
X134971517Y-116758088D01*
X134179605Y-117550000D01*
X134971517Y-118341912D01*
X135142560Y-118293647D01*
X135142560Y-118300000D01*
X135191843Y-118547765D01*
X135332191Y-118757809D01*
X135542235Y-118898157D01*
X135790000Y-118947440D01*
X137290000Y-118947440D01*
X137537765Y-118898157D01*
X137747809Y-118757809D01*
X137888157Y-118547765D01*
X137937440Y-118300000D01*
X137937440Y-116800000D01*
X137888157Y-116552235D01*
X137747809Y-116342191D01*
X137537765Y-116201843D01*
X137450000Y-116184386D01*
X137450000Y-114622533D01*
X137563916Y-114546416D01*
X137757102Y-114257294D01*
X137824940Y-113916250D01*
X137824940Y-113003750D01*
X137757102Y-112662706D01*
X137563916Y-112373584D01*
X137450000Y-112297467D01*
X137450000Y-111295451D01*
X137687765Y-111248157D01*
X137897809Y-111107809D01*
X138038157Y-110897765D01*
X138087440Y-110650000D01*
X138087440Y-109150000D01*
X138038157Y-108902235D01*
X137897809Y-108692191D01*
X137687765Y-108551843D01*
X137495156Y-108513531D01*
X137864147Y-108144540D01*
X138075000Y-107635494D01*
X138075000Y-107084506D01*
X137864147Y-106575460D01*
X137474540Y-106185853D01*
X137243130Y-106090000D01*
X137474540Y-105994147D01*
X137864147Y-105604540D01*
X137874312Y-105580000D01*
X141257558Y-105580000D01*
X141293584Y-105633916D01*
X141388744Y-105697500D01*
X141293584Y-105761084D01*
X141100398Y-106050206D01*
X141032560Y-106391250D01*
X141032560Y-106878750D01*
X141100398Y-107219794D01*
X141293584Y-107508916D01*
X141582706Y-107702102D01*
X141620000Y-107709520D01*
X141620001Y-115545148D01*
X141605112Y-115620000D01*
X141620001Y-115694852D01*
X141664097Y-115916537D01*
X141832072Y-116167929D01*
X141895528Y-116210329D01*
X142979671Y-117294473D01*
X143022071Y-117357929D01*
X143172560Y-117458483D01*
X143172560Y-117910000D01*
X143221843Y-118157765D01*
X143362191Y-118367809D01*
X143572235Y-118508157D01*
X143820000Y-118557440D01*
X146020000Y-118557440D01*
X146267765Y-118508157D01*
X146477809Y-118367809D01*
X146618157Y-118157765D01*
X146667440Y-117910000D01*
X146667440Y-115710000D01*
X146618157Y-115462235D01*
X146477809Y-115252191D01*
X146267765Y-115111843D01*
X146020000Y-115062560D01*
X143820000Y-115062560D01*
X143572235Y-115111843D01*
X143362191Y-115252191D01*
X143251961Y-115417160D01*
X143140000Y-115305199D01*
X143140000Y-107709520D01*
X143177294Y-107702102D01*
X143466416Y-107508916D01*
X143542533Y-107395000D01*
X146633323Y-107395000D01*
X146675843Y-107608765D01*
X146734132Y-107696000D01*
X146675843Y-107783235D01*
X146626560Y-108031000D01*
X146626560Y-108631000D01*
X146675843Y-108878765D01*
X146816191Y-109088809D01*
X147026235Y-109229157D01*
X147274000Y-109278440D01*
X147289000Y-109278440D01*
X147289001Y-110317467D01*
X147162935Y-110342543D01*
X146952891Y-110482891D01*
X146812543Y-110692935D01*
X146763260Y-110940700D01*
X146763260Y-112439300D01*
X146812543Y-112687065D01*
X146952891Y-112897109D01*
X147162935Y-113037457D01*
X147410700Y-113086740D01*
X148909300Y-113086740D01*
X149157065Y-113037457D01*
X149367109Y-112897109D01*
X149507457Y-112687065D01*
X149556740Y-112439300D01*
X149556740Y-110940700D01*
X149507457Y-110692935D01*
X149367109Y-110482891D01*
X149157065Y-110342543D01*
X148909300Y-110293260D01*
X148809000Y-110293260D01*
X148809000Y-109278440D01*
X148824000Y-109278440D01*
X149071765Y-109229157D01*
X149281809Y-109088809D01*
X149422157Y-108878765D01*
X149471440Y-108631000D01*
X149471440Y-108031000D01*
X149422157Y-107783235D01*
X149363868Y-107696000D01*
X149422157Y-107608765D01*
X149471440Y-107361000D01*
X149471440Y-106761000D01*
X149422157Y-106513235D01*
X149363868Y-106426000D01*
X149422157Y-106338765D01*
X149471440Y-106091000D01*
X149471440Y-105491000D01*
X149432111Y-105293280D01*
X149493847Y-105281000D01*
X149493852Y-105281000D01*
X149715537Y-105236904D01*
X149966929Y-105068929D01*
X150009331Y-105005470D01*
X150920111Y-104094690D01*
X152039000Y-104094690D01*
X152039000Y-104235250D01*
X152197750Y-104394000D01*
X153322000Y-104394000D01*
X153322000Y-103744750D01*
X153163250Y-103586000D01*
X152547691Y-103586000D01*
X152314302Y-103682673D01*
X152135673Y-103861301D01*
X152039000Y-104094690D01*
X150920111Y-104094690D01*
X154824473Y-100190329D01*
X154887929Y-100147929D01*
X154988483Y-99997440D01*
X155090000Y-99997440D01*
X155337765Y-99948157D01*
X155547809Y-99807809D01*
X155688157Y-99597765D01*
X155726469Y-99405156D01*
X156095460Y-99774147D01*
X156120000Y-99784312D01*
X156120001Y-102520196D01*
X154767180Y-103873018D01*
X154762327Y-103861301D01*
X154583698Y-103682673D01*
X154350309Y-103586000D01*
X153734750Y-103586000D01*
X153576000Y-103744750D01*
X153576000Y-104394000D01*
X153596000Y-104394000D01*
X153596000Y-104648000D01*
X153576000Y-104648000D01*
X153576000Y-104668000D01*
X153322000Y-104668000D01*
X153322000Y-104648000D01*
X152197750Y-104648000D01*
X152039000Y-104806750D01*
X152039000Y-104947310D01*
X152128768Y-105164028D01*
X152075843Y-105243235D01*
X152026560Y-105491000D01*
X152026560Y-106091000D01*
X152075843Y-106338765D01*
X152134132Y-106426000D01*
X152075843Y-106513235D01*
X152026560Y-106761000D01*
X152026560Y-107361000D01*
X152075843Y-107608765D01*
X152134132Y-107696000D01*
X152075843Y-107783235D01*
X152026560Y-108031000D01*
X152026560Y-108631000D01*
X152075843Y-108878765D01*
X152216191Y-109088809D01*
X152426235Y-109229157D01*
X152674000Y-109278440D01*
X152689000Y-109278440D01*
X152689001Y-110441554D01*
X152482935Y-110482543D01*
X152272891Y-110622891D01*
X152132543Y-110832935D01*
X152083260Y-111080700D01*
X152083260Y-112579300D01*
X152132543Y-112827065D01*
X152272891Y-113037109D01*
X152482935Y-113177457D01*
X152730700Y-113226740D01*
X154229300Y-113226740D01*
X154477065Y-113177457D01*
X154687109Y-113037109D01*
X154827457Y-112827065D01*
X154876740Y-112579300D01*
X154876740Y-111080700D01*
X154827457Y-110832935D01*
X154687109Y-110622891D01*
X154477065Y-110482543D01*
X154229300Y-110433260D01*
X154209000Y-110433260D01*
X154209000Y-109278440D01*
X154224000Y-109278440D01*
X154471765Y-109229157D01*
X154681809Y-109088809D01*
X154822157Y-108878765D01*
X154871440Y-108631000D01*
X154871440Y-108031000D01*
X154829669Y-107821000D01*
X157686190Y-107821000D01*
X157695398Y-107867294D01*
X157888584Y-108156416D01*
X158002500Y-108232533D01*
X158002501Y-109719092D01*
X157861084Y-109813584D01*
X157667898Y-110102706D01*
X157600060Y-110443750D01*
X157600060Y-111356250D01*
X157667898Y-111697294D01*
X157861084Y-111986416D01*
X157975001Y-112062533D01*
X157975001Y-112840197D01*
X155659016Y-115156183D01*
X155250880Y-115075000D01*
X154909120Y-115075000D01*
X154403037Y-115175666D01*
X153829135Y-115559135D01*
X153445666Y-116133037D01*
X153311010Y-116810000D01*
X153445666Y-117486963D01*
X153829135Y-118060865D01*
X154403037Y-118444334D01*
X154909120Y-118545000D01*
X155250880Y-118545000D01*
X155756963Y-118444334D01*
X156330865Y-118060865D01*
X156714334Y-117486963D01*
X156848990Y-116810000D01*
X156733817Y-116230984D01*
X159219473Y-113745329D01*
X159282929Y-113702929D01*
X159450904Y-113451537D01*
X159495000Y-113229852D01*
X159495000Y-113229848D01*
X159509888Y-113155000D01*
X159495000Y-113080152D01*
X159495000Y-112062533D01*
X159608916Y-111986416D01*
X159609707Y-111985233D01*
X159762802Y-112138327D01*
X159996191Y-112235000D01*
X160324250Y-112235000D01*
X160483000Y-112076250D01*
X160483000Y-111027000D01*
X160737000Y-111027000D01*
X160737000Y-112076250D01*
X160895750Y-112235000D01*
X161223809Y-112235000D01*
X161457198Y-112138327D01*
X161635827Y-111959699D01*
X161732500Y-111726310D01*
X161732500Y-111185750D01*
X161573750Y-111027000D01*
X160737000Y-111027000D01*
X160483000Y-111027000D01*
X160463000Y-111027000D01*
X160463000Y-110773000D01*
X160483000Y-110773000D01*
X160483000Y-109723750D01*
X160737000Y-109723750D01*
X160737000Y-110773000D01*
X161573750Y-110773000D01*
X161715233Y-110631517D01*
X163968088Y-110631517D01*
X164036077Y-110872460D01*
X164555171Y-111057201D01*
X165105448Y-111029230D01*
X165483923Y-110872460D01*
X165551912Y-110631517D01*
X164760000Y-109839605D01*
X163968088Y-110631517D01*
X161715233Y-110631517D01*
X161732500Y-110614250D01*
X161732500Y-110073690D01*
X161635827Y-109840301D01*
X161457198Y-109661673D01*
X161223809Y-109565000D01*
X160895750Y-109565000D01*
X160737000Y-109723750D01*
X160483000Y-109723750D01*
X160324250Y-109565000D01*
X159996191Y-109565000D01*
X159762802Y-109661673D01*
X159609707Y-109814767D01*
X159608916Y-109813584D01*
X159522500Y-109755842D01*
X159522500Y-109455171D01*
X163362799Y-109455171D01*
X163390770Y-110005448D01*
X163547540Y-110383923D01*
X163788483Y-110451912D01*
X164580395Y-109660000D01*
X164939605Y-109660000D01*
X165731517Y-110451912D01*
X165972460Y-110383923D01*
X166157201Y-109864829D01*
X166129230Y-109314552D01*
X165972460Y-108936077D01*
X165731517Y-108868088D01*
X164939605Y-109660000D01*
X164580395Y-109660000D01*
X163788483Y-108868088D01*
X163547540Y-108936077D01*
X163362799Y-109455171D01*
X159522500Y-109455171D01*
X159522500Y-108232533D01*
X159636416Y-108156416D01*
X159700000Y-108061256D01*
X159763584Y-108156416D01*
X160052706Y-108349602D01*
X160393750Y-108417440D01*
X160881250Y-108417440D01*
X161222294Y-108349602D01*
X161511416Y-108156416D01*
X161704602Y-107867294D01*
X161712020Y-107830000D01*
X163362560Y-107830000D01*
X163362560Y-107870000D01*
X163411843Y-108117765D01*
X163552191Y-108327809D01*
X163762235Y-108468157D01*
X164010000Y-108517440D01*
X164016353Y-108517440D01*
X163968088Y-108688483D01*
X164760000Y-109480395D01*
X165551912Y-108688483D01*
X165503647Y-108517440D01*
X165510000Y-108517440D01*
X165757765Y-108468157D01*
X165967809Y-108327809D01*
X166108157Y-108117765D01*
X166157440Y-107870000D01*
X166157440Y-106370000D01*
X166108157Y-106122235D01*
X165967809Y-105912191D01*
X165757765Y-105771843D01*
X165510000Y-105722560D01*
X164010000Y-105722560D01*
X163762235Y-105771843D01*
X163552191Y-105912191D01*
X163411843Y-106122235D01*
X163374495Y-106310000D01*
X161712020Y-106310000D01*
X161704602Y-106272706D01*
X161511416Y-105983584D01*
X161222294Y-105790398D01*
X160881250Y-105722560D01*
X160393750Y-105722560D01*
X160052706Y-105790398D01*
X159763584Y-105983584D01*
X159700000Y-106078744D01*
X159636416Y-105983584D01*
X159347294Y-105790398D01*
X159006250Y-105722560D01*
X158518750Y-105722560D01*
X158177706Y-105790398D01*
X157888584Y-105983584D01*
X157695398Y-106272706D01*
X157689770Y-106301000D01*
X154829669Y-106301000D01*
X154871440Y-106091000D01*
X154871440Y-105918361D01*
X157364476Y-103425327D01*
X157427929Y-103382929D01*
X157470327Y-103319476D01*
X157470329Y-103319474D01*
X157595903Y-103131538D01*
X157595904Y-103131537D01*
X157640000Y-102909852D01*
X157640000Y-102909848D01*
X157654888Y-102835001D01*
X157640000Y-102760154D01*
X157640000Y-99784312D01*
X157664540Y-99774147D01*
X157867170Y-99571517D01*
X158628088Y-99571517D01*
X158696077Y-99812460D01*
X159215171Y-99997201D01*
X159765448Y-99969230D01*
X160143923Y-99812460D01*
X160211912Y-99571517D01*
X159420000Y-98779605D01*
X158628088Y-99571517D01*
X157867170Y-99571517D01*
X158054147Y-99384540D01*
X158143397Y-99169070D01*
X158207540Y-99323923D01*
X158448483Y-99391912D01*
X159240395Y-98600000D01*
X159599605Y-98600000D01*
X160391517Y-99391912D01*
X160632460Y-99323923D01*
X160817201Y-98804829D01*
X160789230Y-98254552D01*
X160632460Y-97876077D01*
X160391517Y-97808088D01*
X159599605Y-98600000D01*
X159240395Y-98600000D01*
X158448483Y-97808088D01*
X158207540Y-97876077D01*
X158148255Y-98042658D01*
X158054147Y-97815460D01*
X157867170Y-97628483D01*
X158628088Y-97628483D01*
X159420000Y-98420395D01*
X160211912Y-97628483D01*
X160143923Y-97387540D01*
X159624829Y-97202799D01*
X159074552Y-97230770D01*
X158696077Y-97387540D01*
X158628088Y-97628483D01*
X157867170Y-97628483D01*
X157664540Y-97425853D01*
X157155494Y-97215000D01*
X156604506Y-97215000D01*
X156095460Y-97425853D01*
X155726469Y-97794844D01*
X155688157Y-97602235D01*
X155547809Y-97392191D01*
X155337765Y-97251843D01*
X155090000Y-97202560D01*
X153590000Y-97202560D01*
X153342235Y-97251843D01*
X153132191Y-97392191D01*
X152991843Y-97602235D01*
X152942560Y-97850000D01*
X152942560Y-99350000D01*
X152991843Y-99597765D01*
X153102229Y-99762969D01*
X149174026Y-103691172D01*
X149071765Y-103622843D01*
X148824000Y-103573560D01*
X147274000Y-103573560D01*
X147026235Y-103622843D01*
X146816191Y-103763191D01*
X146675843Y-103973235D01*
X146670519Y-104000000D01*
X143542533Y-104000000D01*
X143466416Y-103886084D01*
X143177294Y-103692898D01*
X142836250Y-103625060D01*
X141923750Y-103625060D01*
X141582706Y-103692898D01*
X141293584Y-103886084D01*
X141177377Y-104060000D01*
X137874312Y-104060000D01*
X137864147Y-104035460D01*
X137474540Y-103645853D01*
X136965494Y-103435000D01*
X136414506Y-103435000D01*
X135905460Y-103645853D01*
X135515853Y-104035460D01*
X135505688Y-104060000D01*
X131312533Y-104060000D01*
X131236416Y-103946084D01*
X130947294Y-103752898D01*
X130606250Y-103685060D01*
X129693750Y-103685060D01*
X129352706Y-103752898D01*
X129063584Y-103946084D01*
X128870398Y-104235206D01*
X128802560Y-104576250D01*
X128802560Y-105063750D01*
X128870398Y-105404794D01*
X129063584Y-105693916D01*
X129158744Y-105757500D01*
X129063584Y-105821084D01*
X128870398Y-106110206D01*
X128802560Y-106451250D01*
X128802560Y-106938750D01*
X128870398Y-107279794D01*
X129063584Y-107568916D01*
X129352706Y-107762102D01*
X129390000Y-107769520D01*
X129390001Y-108295480D01*
X129352706Y-108302898D01*
X129063584Y-108496084D01*
X128987467Y-108610000D01*
X128102533Y-108610000D01*
X128026416Y-108496084D01*
X127737294Y-108302898D01*
X127640000Y-108283545D01*
X127640000Y-107965451D01*
X127877765Y-107918157D01*
X128087809Y-107777809D01*
X128228157Y-107567765D01*
X128277440Y-107320000D01*
X128277440Y-105820000D01*
X128228157Y-105572235D01*
X128087809Y-105362191D01*
X127877765Y-105221843D01*
X127630000Y-105172560D01*
X126130000Y-105172560D01*
X125882235Y-105221843D01*
X125672191Y-105362191D01*
X125531843Y-105572235D01*
X125482560Y-105820000D01*
X123850000Y-105820000D01*
X123850000Y-94640000D01*
X166980001Y-94640000D01*
X166980000Y-119990000D01*
G04 #@! TD*
M02*
